ISO-10303-21;
HEADER;
/* Generated by software containing ST-Developer
 * from STEP Tools, Inc. (www.steptools.com) 
 */
/* OPTION: strings as raw bytes, not using required /X/ escapes */

FILE_DESCRIPTION(
/* description */ ('Unknown'),
/* implementation_level */ '2;1');

FILE_NAME(
/* name */ '5710113100F',
/* time_stamp */ '2025-07-04T11:11:37+02:00',
/* author */ ('Unknown'),
/* organization */ ('Unknown'),
/* preprocessor_version */ 'ST-DEVELOPER v19.4',
/* originating_system */ 'Solid Edge',
/* authorisation */ 'Unknown');

FILE_SCHEMA (('AUTOMOTIVE_DESIGN {1 0 10303 214 3 1 1}'));
ENDSEC;

DATA;
#10=PROPERTY_DEFINITION_REPRESENTATION(#14,#12);
#11=PROPERTY_DEFINITION_REPRESENTATION(#15,#13);
#12=REPRESENTATION('',(#16),#2491);
#13=REPRESENTATION('',(#17),#2491);
#14=PROPERTY_DEFINITION('pmi validation property','',#2496);
#15=PROPERTY_DEFINITION('pmi validation property','',#2496);
#16=VALUE_REPRESENTATION_ITEM('number of annotations',COUNT_MEASURE(0.));
#17=VALUE_REPRESENTATION_ITEM('number of views',COUNT_MEASURE(0.));
#18=SHAPE_REPRESENTATION_RELATIONSHIP('','',#1743,#19);
#19=ADVANCED_BREP_SHAPE_REPRESENTATION('',(#1741),#2491);
#20=CYLINDRICAL_SURFACE('',#1786,0.9);
#21=CYLINDRICAL_SURFACE('',#1787,0.9);
#22=CYLINDRICAL_SURFACE('',#1801,0.75);
#23=CYLINDRICAL_SURFACE('',#1804,0.75);
#24=CYLINDRICAL_SURFACE('',#1826,1.48177623910019);
#25=CYLINDRICAL_SURFACE('',#1829,1.47744356143163);
#26=DEGENERATE_TOROIDAL_SURFACE('',#1784,0.0273187380126134,0.872681261987387,
 .T.);
#27=DEGENERATE_TOROIDAL_SURFACE('',#1789,0.0300000000000002,0.87,.T.);
#28=CIRCLE('',#1748,0.9);
#29=CIRCLE('',#1749,1.47744356143163);
#30=CIRCLE('',#1751,0.9);
#31=CIRCLE('',#1752,1.48177623910019);
#32=CIRCLE('',#1754,0.75);
#33=CIRCLE('',#1755,0.75);
#34=CIRCLE('',#1783,0.0273187380126134);
#35=CIRCLE('',#1785,0.9);
#36=CIRCLE('',#1788,0.9);
#37=CIRCLE('',#1790,0.0300000000000002);
#38=CIRCLE('',#1800,0.75);
#39=CIRCLE('',#1803,0.75);
#40=CIRCLE('',#1824,1.48177623910019);
#41=CIRCLE('',#1828,1.47744356143163);
#42=ORIENTED_EDGE('',*,*,#362,.F.);
#43=ORIENTED_EDGE('',*,*,#363,.T.);
#44=ORIENTED_EDGE('',*,*,#364,.T.);
#45=ORIENTED_EDGE('',*,*,#365,.F.);
#46=ORIENTED_EDGE('',*,*,#366,.F.);
#47=ORIENTED_EDGE('',*,*,#367,.T.);
#48=ORIENTED_EDGE('',*,*,#368,.T.);
#49=ORIENTED_EDGE('',*,*,#369,.F.);
#50=ORIENTED_EDGE('',*,*,#370,.F.);
#51=ORIENTED_EDGE('',*,*,#371,.F.);
#52=ORIENTED_EDGE('',*,*,#365,.T.);
#53=ORIENTED_EDGE('',*,*,#372,.T.);
#54=ORIENTED_EDGE('',*,*,#373,.T.);
#55=ORIENTED_EDGE('',*,*,#374,.F.);
#56=ORIENTED_EDGE('',*,*,#375,.T.);
#57=ORIENTED_EDGE('',*,*,#376,.T.);
#58=ORIENTED_EDGE('',*,*,#369,.T.);
#59=ORIENTED_EDGE('',*,*,#377,.T.);
#60=ORIENTED_EDGE('',*,*,#378,.T.);
#61=ORIENTED_EDGE('',*,*,#379,.T.);
#62=ORIENTED_EDGE('',*,*,#380,.T.);
#63=ORIENTED_EDGE('',*,*,#381,.T.);
#64=ORIENTED_EDGE('',*,*,#382,.T.);
#65=ORIENTED_EDGE('',*,*,#383,.F.);
#66=ORIENTED_EDGE('',*,*,#384,.F.);
#67=ORIENTED_EDGE('',*,*,#385,.T.);
#68=ORIENTED_EDGE('',*,*,#386,.T.);
#69=ORIENTED_EDGE('',*,*,#387,.T.);
#70=ORIENTED_EDGE('',*,*,#388,.F.);
#71=ORIENTED_EDGE('',*,*,#389,.T.);
#72=ORIENTED_EDGE('',*,*,#390,.T.);
#73=ORIENTED_EDGE('',*,*,#391,.F.);
#74=ORIENTED_EDGE('',*,*,#392,.F.);
#75=ORIENTED_EDGE('',*,*,#393,.F.);
#76=ORIENTED_EDGE('',*,*,#394,.T.);
#77=ORIENTED_EDGE('',*,*,#395,.F.);
#78=ORIENTED_EDGE('',*,*,#396,.F.);
#79=ORIENTED_EDGE('',*,*,#397,.T.);
#80=ORIENTED_EDGE('',*,*,#398,.T.);
#81=ORIENTED_EDGE('',*,*,#399,.F.);
#82=ORIENTED_EDGE('',*,*,#400,.F.);
#83=ORIENTED_EDGE('',*,*,#401,.T.);
#84=ORIENTED_EDGE('',*,*,#396,.T.);
#85=ORIENTED_EDGE('',*,*,#402,.T.);
#86=ORIENTED_EDGE('',*,*,#400,.T.);
#87=ORIENTED_EDGE('',*,*,#403,.T.);
#88=ORIENTED_EDGE('',*,*,#404,.T.);
#89=ORIENTED_EDGE('',*,*,#397,.F.);
#90=ORIENTED_EDGE('',*,*,#403,.F.);
#91=ORIENTED_EDGE('',*,*,#399,.T.);
#92=ORIENTED_EDGE('',*,*,#405,.T.);
#93=ORIENTED_EDGE('',*,*,#401,.F.);
#94=ORIENTED_EDGE('',*,*,#402,.F.);
#95=ORIENTED_EDGE('',*,*,#395,.T.);
#96=ORIENTED_EDGE('',*,*,#406,.F.);
#97=ORIENTED_EDGE('',*,*,#407,.F.);
#98=ORIENTED_EDGE('',*,*,#408,.F.);
#99=ORIENTED_EDGE('',*,*,#409,.F.);
#100=ORIENTED_EDGE('',*,*,#410,.F.);
#101=ORIENTED_EDGE('',*,*,#411,.F.);
#102=ORIENTED_EDGE('',*,*,#412,.F.);
#103=ORIENTED_EDGE('',*,*,#413,.F.);
#104=ORIENTED_EDGE('',*,*,#414,.T.);
#105=ORIENTED_EDGE('',*,*,#415,.T.);
#106=ORIENTED_EDGE('',*,*,#416,.F.);
#107=ORIENTED_EDGE('',*,*,#417,.F.);
#108=ORIENTED_EDGE('',*,*,#418,.F.);
#109=ORIENTED_EDGE('',*,*,#419,.F.);
#110=ORIENTED_EDGE('',*,*,#420,.F.);
#111=ORIENTED_EDGE('',*,*,#421,.F.);
#112=ORIENTED_EDGE('',*,*,#404,.F.);
#113=ORIENTED_EDGE('',*,*,#398,.F.);
#114=ORIENTED_EDGE('',*,*,#405,.F.);
#115=ORIENTED_EDGE('',*,*,#394,.F.);
#116=ORIENTED_EDGE('',*,*,#406,.T.);
#117=ORIENTED_EDGE('',*,*,#422,.F.);
#118=ORIENTED_EDGE('',*,*,#423,.F.);
#119=ORIENTED_EDGE('',*,*,#424,.T.);
#120=ORIENTED_EDGE('',*,*,#423,.T.);
#121=ORIENTED_EDGE('',*,*,#425,.T.);
#122=ORIENTED_EDGE('',*,*,#426,.T.);
#123=ORIENTED_EDGE('',*,*,#427,.T.);
#124=ORIENTED_EDGE('',*,*,#409,.T.);
#125=ORIENTED_EDGE('',*,*,#428,.F.);
#126=ORIENTED_EDGE('',*,*,#425,.F.);
#127=ORIENTED_EDGE('',*,*,#422,.T.);
#128=ORIENTED_EDGE('',*,*,#407,.T.);
#129=ORIENTED_EDGE('',*,*,#424,.F.);
#130=ORIENTED_EDGE('',*,*,#427,.F.);
#131=ORIENTED_EDGE('',*,*,#429,.T.);
#132=ORIENTED_EDGE('',*,*,#408,.T.);
#133=ORIENTED_EDGE('',*,*,#429,.F.);
#134=ORIENTED_EDGE('',*,*,#426,.F.);
#135=ORIENTED_EDGE('',*,*,#428,.T.);
#136=ORIENTED_EDGE('',*,*,#418,.T.);
#137=ORIENTED_EDGE('',*,*,#430,.F.);
#138=ORIENTED_EDGE('',*,*,#431,.F.);
#139=ORIENTED_EDGE('',*,*,#432,.T.);
#140=ORIENTED_EDGE('',*,*,#421,.T.);
#141=ORIENTED_EDGE('',*,*,#433,.F.);
#142=ORIENTED_EDGE('',*,*,#434,.F.);
#143=ORIENTED_EDGE('',*,*,#430,.T.);
#144=ORIENTED_EDGE('',*,*,#420,.T.);
#145=ORIENTED_EDGE('',*,*,#435,.F.);
#146=ORIENTED_EDGE('',*,*,#436,.F.);
#147=ORIENTED_EDGE('',*,*,#433,.T.);
#148=ORIENTED_EDGE('',*,*,#419,.T.);
#149=ORIENTED_EDGE('',*,*,#432,.F.);
#150=ORIENTED_EDGE('',*,*,#437,.F.);
#151=ORIENTED_EDGE('',*,*,#435,.T.);
#152=ORIENTED_EDGE('',*,*,#431,.T.);
#153=ORIENTED_EDGE('',*,*,#434,.T.);
#154=ORIENTED_EDGE('',*,*,#436,.T.);
#155=ORIENTED_EDGE('',*,*,#437,.T.);
#156=ORIENTED_EDGE('',*,*,#438,.F.);
#157=ORIENTED_EDGE('',*,*,#439,.F.);
#158=ORIENTED_EDGE('',*,*,#440,.T.);
#159=ORIENTED_EDGE('',*,*,#441,.T.);
#160=ORIENTED_EDGE('',*,*,#442,.T.);
#161=ORIENTED_EDGE('',*,*,#443,.T.);
#162=ORIENTED_EDGE('',*,*,#383,.T.);
#163=ORIENTED_EDGE('',*,*,#372,.F.);
#164=ORIENTED_EDGE('',*,*,#444,.T.);
#165=ORIENTED_EDGE('',*,*,#445,.T.);
#166=ORIENTED_EDGE('',*,*,#392,.T.);
#167=ORIENTED_EDGE('',*,*,#446,.T.);
#168=ORIENTED_EDGE('',*,*,#364,.F.);
#169=ORIENTED_EDGE('',*,*,#363,.F.);
#170=ORIENTED_EDGE('',*,*,#447,.F.);
#171=ORIENTED_EDGE('',*,*,#448,.T.);
#172=ORIENTED_EDGE('',*,*,#444,.F.);
#173=ORIENTED_EDGE('',*,*,#449,.T.);
#174=ORIENTED_EDGE('',*,*,#450,.T.);
#175=ORIENTED_EDGE('',*,*,#440,.F.);
#176=ORIENTED_EDGE('',*,*,#451,.F.);
#177=ORIENTED_EDGE('',*,*,#368,.F.);
#178=ORIENTED_EDGE('',*,*,#367,.F.);
#179=ORIENTED_EDGE('',*,*,#452,.F.);
#180=ORIENTED_EDGE('',*,*,#453,.T.);
#181=ORIENTED_EDGE('',*,*,#442,.F.);
#182=ORIENTED_EDGE('',*,*,#386,.F.);
#183=ORIENTED_EDGE('',*,*,#454,.T.);
#184=ORIENTED_EDGE('',*,*,#375,.F.);
#185=ORIENTED_EDGE('',*,*,#387,.F.);
#186=ORIENTED_EDGE('',*,*,#455,.F.);
#187=ORIENTED_EDGE('',*,*,#456,.T.);
#188=ORIENTED_EDGE('',*,*,#457,.T.);
#189=ORIENTED_EDGE('',*,*,#389,.F.);
#190=ORIENTED_EDGE('',*,*,#381,.F.);
#191=ORIENTED_EDGE('',*,*,#458,.T.);
#192=ORIENTED_EDGE('',*,*,#373,.F.);
#193=ORIENTED_EDGE('',*,*,#382,.F.);
#194=ORIENTED_EDGE('',*,*,#459,.T.);
#195=ORIENTED_EDGE('',*,*,#449,.F.);
#196=ORIENTED_EDGE('',*,*,#446,.F.);
#197=ORIENTED_EDGE('',*,*,#391,.T.);
#198=ORIENTED_EDGE('',*,*,#460,.F.);
#199=ORIENTED_EDGE('',*,*,#455,.T.);
#200=ORIENTED_EDGE('',*,*,#388,.T.);
#201=ORIENTED_EDGE('',*,*,#377,.F.);
#202=ORIENTED_EDGE('',*,*,#451,.T.);
#203=ORIENTED_EDGE('',*,*,#439,.T.);
#204=ORIENTED_EDGE('',*,*,#461,.F.);
#205=ORIENTED_EDGE('',*,*,#414,.F.);
#206=ORIENTED_EDGE('',*,*,#457,.F.);
#207=ORIENTED_EDGE('',*,*,#462,.T.);
#208=ORIENTED_EDGE('',*,*,#416,.T.);
#209=ORIENTED_EDGE('',*,*,#463,.T.);
#210=ORIENTED_EDGE('',*,*,#441,.F.);
#211=ORIENTED_EDGE('',*,*,#450,.F.);
#212=ORIENTED_EDGE('',*,*,#459,.F.);
#213=ORIENTED_EDGE('',*,*,#390,.F.);
#214=ORIENTED_EDGE('',*,*,#464,.T.);
#215=ORIENTED_EDGE('',*,*,#465,.T.);
#216=ORIENTED_EDGE('',*,*,#464,.F.);
#217=ORIENTED_EDGE('',*,*,#370,.T.);
#218=ORIENTED_EDGE('',*,*,#465,.F.);
#219=ORIENTED_EDGE('',*,*,#466,.F.);
#220=ORIENTED_EDGE('',*,*,#374,.T.);
#221=ORIENTED_EDGE('',*,*,#467,.F.);
#222=ORIENTED_EDGE('',*,*,#466,.T.);
#223=ORIENTED_EDGE('',*,*,#467,.T.);
#224=ORIENTED_EDGE('',*,*,#460,.T.);
#225=ORIENTED_EDGE('',*,*,#417,.T.);
#226=ORIENTED_EDGE('',*,*,#462,.F.);
#227=ORIENTED_EDGE('',*,*,#456,.F.);
#228=ORIENTED_EDGE('',*,*,#461,.T.);
#229=ORIENTED_EDGE('',*,*,#438,.T.);
#230=ORIENTED_EDGE('',*,*,#463,.F.);
#231=ORIENTED_EDGE('',*,*,#415,.F.);
#232=ORIENTED_EDGE('',*,*,#410,.T.);
#233=ORIENTED_EDGE('',*,*,#468,.F.);
#234=ORIENTED_EDGE('',*,*,#469,.F.);
#235=ORIENTED_EDGE('',*,*,#470,.T.);
#236=ORIENTED_EDGE('',*,*,#413,.T.);
#237=ORIENTED_EDGE('',*,*,#471,.F.);
#238=ORIENTED_EDGE('',*,*,#472,.F.);
#239=ORIENTED_EDGE('',*,*,#468,.T.);
#240=ORIENTED_EDGE('',*,*,#412,.T.);
#241=ORIENTED_EDGE('',*,*,#473,.F.);
#242=ORIENTED_EDGE('',*,*,#474,.F.);
#243=ORIENTED_EDGE('',*,*,#471,.T.);
#244=ORIENTED_EDGE('',*,*,#411,.T.);
#245=ORIENTED_EDGE('',*,*,#470,.F.);
#246=ORIENTED_EDGE('',*,*,#475,.F.);
#247=ORIENTED_EDGE('',*,*,#473,.T.);
#248=ORIENTED_EDGE('',*,*,#469,.T.);
#249=ORIENTED_EDGE('',*,*,#472,.T.);
#250=ORIENTED_EDGE('',*,*,#474,.T.);
#251=ORIENTED_EDGE('',*,*,#475,.T.);
#252=ORIENTED_EDGE('',*,*,#476,.F.);
#253=ORIENTED_EDGE('',*,*,#477,.F.);
#254=ORIENTED_EDGE('',*,*,#478,.F.);
#255=ORIENTED_EDGE('',*,*,#479,.F.);
#256=ORIENTED_EDGE('',*,*,#480,.F.);
#257=ORIENTED_EDGE('',*,*,#476,.T.);
#258=ORIENTED_EDGE('',*,*,#379,.F.);
#259=ORIENTED_EDGE('',*,*,#481,.F.);
#260=ORIENTED_EDGE('',*,*,#482,.F.);
#261=ORIENTED_EDGE('',*,*,#483,.F.);
#262=ORIENTED_EDGE('',*,*,#484,.F.);
#263=ORIENTED_EDGE('',*,*,#485,.F.);
#264=ORIENTED_EDGE('',*,*,#481,.T.);
#265=ORIENTED_EDGE('',*,*,#378,.F.);
#266=ORIENTED_EDGE('',*,*,#486,.T.);
#267=ORIENTED_EDGE('',*,*,#487,.T.);
#268=ORIENTED_EDGE('',*,*,#488,.T.);
#269=ORIENTED_EDGE('',*,*,#489,.T.);
#270=ORIENTED_EDGE('',*,*,#490,.F.);
#271=ORIENTED_EDGE('',*,*,#491,.F.);
#272=ORIENTED_EDGE('',*,*,#492,.F.);
#273=ORIENTED_EDGE('',*,*,#489,.F.);
#274=ORIENTED_EDGE('',*,*,#490,.T.);
#275=ORIENTED_EDGE('',*,*,#488,.F.);
#276=ORIENTED_EDGE('',*,*,#493,.F.);
#277=ORIENTED_EDGE('',*,*,#494,.F.);
#278=ORIENTED_EDGE('',*,*,#495,.T.);
#279=ORIENTED_EDGE('',*,*,#496,.F.);
#280=ORIENTED_EDGE('',*,*,#493,.T.);
#281=ORIENTED_EDGE('',*,*,#487,.F.);
#282=ORIENTED_EDGE('',*,*,#492,.T.);
#283=ORIENTED_EDGE('',*,*,#497,.F.);
#284=ORIENTED_EDGE('',*,*,#495,.F.);
#285=ORIENTED_EDGE('',*,*,#486,.F.);
#286=ORIENTED_EDGE('',*,*,#498,.F.);
#287=ORIENTED_EDGE('',*,*,#497,.T.);
#288=ORIENTED_EDGE('',*,*,#499,.T.);
#289=ORIENTED_EDGE('',*,*,#477,.T.);
#290=ORIENTED_EDGE('',*,*,#500,.F.);
#291=ORIENTED_EDGE('',*,*,#496,.T.);
#292=ORIENTED_EDGE('',*,*,#498,.T.);
#293=ORIENTED_EDGE('',*,*,#480,.T.);
#294=ORIENTED_EDGE('',*,*,#501,.F.);
#295=ORIENTED_EDGE('',*,*,#494,.T.);
#296=ORIENTED_EDGE('',*,*,#500,.T.);
#297=ORIENTED_EDGE('',*,*,#479,.T.);
#298=ORIENTED_EDGE('',*,*,#499,.F.);
#299=ORIENTED_EDGE('',*,*,#491,.T.);
#300=ORIENTED_EDGE('',*,*,#501,.T.);
#301=ORIENTED_EDGE('',*,*,#478,.T.);
#302=ORIENTED_EDGE('',*,*,#502,.T.);
#303=ORIENTED_EDGE('',*,*,#503,.T.);
#304=ORIENTED_EDGE('',*,*,#504,.T.);
#305=ORIENTED_EDGE('',*,*,#505,.T.);
#306=ORIENTED_EDGE('',*,*,#506,.T.);
#307=ORIENTED_EDGE('',*,*,#507,.F.);
#308=ORIENTED_EDGE('',*,*,#508,.T.);
#309=ORIENTED_EDGE('',*,*,#503,.F.);
#310=ORIENTED_EDGE('',*,*,#509,.T.);
#311=ORIENTED_EDGE('',*,*,#510,.F.);
#312=ORIENTED_EDGE('',*,*,#506,.F.);
#313=ORIENTED_EDGE('',*,*,#502,.F.);
#314=ORIENTED_EDGE('',*,*,#511,.F.);
#315=ORIENTED_EDGE('',*,*,#512,.F.);
#316=ORIENTED_EDGE('',*,*,#509,.F.);
#317=ORIENTED_EDGE('',*,*,#505,.F.);
#318=ORIENTED_EDGE('',*,*,#511,.T.);
#319=ORIENTED_EDGE('',*,*,#504,.F.);
#320=ORIENTED_EDGE('',*,*,#508,.F.);
#321=ORIENTED_EDGE('',*,*,#513,.F.);
#322=ORIENTED_EDGE('',*,*,#514,.F.);
#323=ORIENTED_EDGE('',*,*,#513,.T.);
#324=ORIENTED_EDGE('',*,*,#515,.T.);
#325=ORIENTED_EDGE('',*,*,#484,.T.);
#326=ORIENTED_EDGE('',*,*,#516,.F.);
#327=ORIENTED_EDGE('',*,*,#512,.T.);
#328=ORIENTED_EDGE('',*,*,#514,.T.);
#329=ORIENTED_EDGE('',*,*,#483,.T.);
#330=ORIENTED_EDGE('',*,*,#517,.F.);
#331=ORIENTED_EDGE('',*,*,#510,.T.);
#332=ORIENTED_EDGE('',*,*,#516,.T.);
#333=ORIENTED_EDGE('',*,*,#482,.T.);
#334=ORIENTED_EDGE('',*,*,#515,.F.);
#335=ORIENTED_EDGE('',*,*,#507,.T.);
#336=ORIENTED_EDGE('',*,*,#517,.T.);
#337=ORIENTED_EDGE('',*,*,#485,.T.);
#338=ORIENTED_EDGE('',*,*,#452,.T.);
#339=ORIENTED_EDGE('',*,*,#518,.F.);
#340=ORIENTED_EDGE('',*,*,#385,.F.);
#341=ORIENTED_EDGE('',*,*,#519,.F.);
#342=ORIENTED_EDGE('',*,*,#443,.F.);
#343=ORIENTED_EDGE('',*,*,#453,.F.);
#344=ORIENTED_EDGE('',*,*,#519,.T.);
#345=ORIENTED_EDGE('',*,*,#384,.T.);
#346=ORIENTED_EDGE('',*,*,#376,.F.);
#347=ORIENTED_EDGE('',*,*,#454,.F.);
#348=ORIENTED_EDGE('',*,*,#518,.T.);
#349=ORIENTED_EDGE('',*,*,#366,.T.);
#350=ORIENTED_EDGE('',*,*,#447,.T.);
#351=ORIENTED_EDGE('',*,*,#520,.T.);
#352=ORIENTED_EDGE('',*,*,#380,.F.);
#353=ORIENTED_EDGE('',*,*,#521,.T.);
#354=ORIENTED_EDGE('',*,*,#371,.T.);
#355=ORIENTED_EDGE('',*,*,#458,.F.);
#356=ORIENTED_EDGE('',*,*,#520,.F.);
#357=ORIENTED_EDGE('',*,*,#362,.T.);
#358=ORIENTED_EDGE('',*,*,#445,.F.);
#359=ORIENTED_EDGE('',*,*,#448,.F.);
#360=ORIENTED_EDGE('',*,*,#521,.F.);
#361=ORIENTED_EDGE('',*,*,#393,.T.);
#362=EDGE_CURVE('',#522,#523,#628,.T.);
#363=EDGE_CURVE('',#522,#524,#629,.T.);
#364=EDGE_CURVE('',#524,#525,#630,.T.);
#365=EDGE_CURVE('',#523,#525,#631,.T.);
#366=EDGE_CURVE('',#526,#527,#632,.T.);
#367=EDGE_CURVE('',#526,#528,#633,.T.);
#368=EDGE_CURVE('',#528,#529,#634,.T.);
#369=EDGE_CURVE('',#527,#529,#635,.T.);
#370=EDGE_CURVE('',#530,#530,#28,.T.);
#371=EDGE_CURVE('',#523,#531,#29,.T.);
#372=EDGE_CURVE('',#525,#532,#636,.T.);
#373=EDGE_CURVE('',#532,#531,#637,.T.);
#374=EDGE_CURVE('',#533,#533,#30,.T.);
#375=EDGE_CURVE('',#534,#535,#638,.T.);
#376=EDGE_CURVE('',#535,#527,#31,.T.);
#377=EDGE_CURVE('',#529,#534,#639,.T.);
#378=EDGE_CURVE('',#536,#536,#32,.T.);
#379=EDGE_CURVE('',#537,#537,#33,.T.);
#380=EDGE_CURVE('',#538,#539,#640,.T.);
#381=EDGE_CURVE('',#539,#540,#641,.T.);
#382=EDGE_CURVE('',#540,#532,#642,.T.);
#383=EDGE_CURVE('',#541,#532,#643,.T.);
#384=EDGE_CURVE('',#542,#541,#644,.T.);
#385=EDGE_CURVE('',#542,#543,#645,.T.);
#386=EDGE_CURVE('',#543,#544,#646,.T.);
#387=EDGE_CURVE('',#544,#534,#647,.T.);
#388=EDGE_CURVE('',#545,#534,#648,.T.);
#389=EDGE_CURVE('',#545,#546,#649,.T.);
#390=EDGE_CURVE('',#546,#547,#650,.T.);
#391=EDGE_CURVE('',#548,#547,#651,.T.);
#392=EDGE_CURVE('',#549,#548,#652,.T.);
#393=EDGE_CURVE('',#538,#549,#653,.T.);
#394=EDGE_CURVE('',#550,#551,#654,.T.);
#395=EDGE_CURVE('',#552,#551,#655,.T.);
#396=EDGE_CURVE('',#553,#552,#656,.T.);
#397=EDGE_CURVE('',#553,#550,#657,.T.);
#398=EDGE_CURVE('',#554,#555,#658,.T.);
#399=EDGE_CURVE('',#556,#555,#659,.T.);
#400=EDGE_CURVE('',#557,#556,#660,.T.);
#401=EDGE_CURVE('',#557,#554,#661,.T.);
#402=EDGE_CURVE('',#552,#557,#662,.T.);
#403=EDGE_CURVE('',#556,#553,#663,.T.);
#404=EDGE_CURVE('',#555,#550,#664,.T.);
#405=EDGE_CURVE('',#551,#554,#665,.T.);
#406=EDGE_CURVE('',#558,#559,#666,.T.);
#407=EDGE_CURVE('',#560,#558,#667,.T.);
#408=EDGE_CURVE('',#561,#560,#668,.T.);
#409=EDGE_CURVE('',#559,#561,#669,.T.);
#410=EDGE_CURVE('',#562,#563,#670,.T.);
#411=EDGE_CURVE('',#564,#562,#671,.T.);
#412=EDGE_CURVE('',#565,#564,#672,.T.);
#413=EDGE_CURVE('',#563,#565,#673,.T.);
#414=EDGE_CURVE('',#566,#567,#674,.T.);
#415=EDGE_CURVE('',#567,#568,#675,.T.);
#416=EDGE_CURVE('',#569,#568,#676,.T.);
#417=EDGE_CURVE('',#566,#569,#677,.T.);
#418=EDGE_CURVE('',#570,#571,#678,.T.);
#419=EDGE_CURVE('',#572,#570,#679,.T.);
#420=EDGE_CURVE('',#573,#572,#680,.T.);
#421=EDGE_CURVE('',#571,#573,#681,.T.);
#422=EDGE_CURVE('',#574,#559,#682,.T.);
#423=EDGE_CURVE('',#575,#574,#683,.T.);
#424=EDGE_CURVE('',#575,#558,#684,.T.);
#425=EDGE_CURVE('',#574,#576,#685,.T.);
#426=EDGE_CURVE('',#576,#577,#686,.T.);
#427=EDGE_CURVE('',#577,#575,#687,.T.);
#428=EDGE_CURVE('',#576,#561,#688,.T.);
#429=EDGE_CURVE('',#577,#560,#689,.T.);
#430=EDGE_CURVE('',#578,#571,#690,.T.);
#431=EDGE_CURVE('',#579,#578,#691,.T.);
#432=EDGE_CURVE('',#579,#570,#692,.T.);
#433=EDGE_CURVE('',#580,#573,#693,.T.);
#434=EDGE_CURVE('',#578,#580,#694,.T.);
#435=EDGE_CURVE('',#581,#572,#695,.T.);
#436=EDGE_CURVE('',#580,#581,#696,.T.);
#437=EDGE_CURVE('',#581,#579,#697,.T.);
#438=EDGE_CURVE('',#582,#583,#698,.T.);
#439=EDGE_CURVE('',#584,#582,#699,.T.);
#440=EDGE_CURVE('',#584,#585,#700,.T.);
#441=EDGE_CURVE('',#585,#583,#701,.T.);
#442=EDGE_CURVE('',#525,#586,#702,.T.);
#443=EDGE_CURVE('',#586,#541,#703,.T.);
#444=EDGE_CURVE('',#587,#588,#704,.T.);
#445=EDGE_CURVE('',#588,#549,#705,.T.);
#446=EDGE_CURVE('',#548,#587,#706,.T.);
#447=EDGE_CURVE('',#589,#522,#707,.T.);
#448=EDGE_CURVE('',#589,#588,#708,.T.);
#449=EDGE_CURVE('',#587,#590,#709,.T.);
#450=EDGE_CURVE('',#590,#585,#710,.T.);
#451=EDGE_CURVE('',#529,#584,#711,.T.);
#452=EDGE_CURVE('',#591,#526,#712,.T.);
#453=EDGE_CURVE('',#591,#586,#713,.T.);
#454=EDGE_CURVE('',#543,#535,#714,.T.);
#455=EDGE_CURVE('',#592,#545,#715,.T.);
#456=EDGE_CURVE('',#592,#593,#716,.T.);
#457=EDGE_CURVE('',#593,#546,#717,.T.);
#458=EDGE_CURVE('',#539,#531,#718,.T.);
#459=EDGE_CURVE('',#547,#590,#719,.T.);
#460=EDGE_CURVE('',#592,#566,#720,.T.);
#461=EDGE_CURVE('',#567,#582,#721,.T.);
#462=EDGE_CURVE('',#593,#569,#722,.T.);
#463=EDGE_CURVE('',#568,#583,#723,.T.);
#464=EDGE_CURVE('',#594,#594,#34,.T.);
#465=EDGE_CURVE('',#595,#595,#35,.T.);
#466=EDGE_CURVE('',#596,#596,#36,.F.);
#467=EDGE_CURVE('',#597,#597,#37,.F.);
#468=EDGE_CURVE('',#598,#563,#724,.T.);
#469=EDGE_CURVE('',#599,#598,#725,.T.);
#470=EDGE_CURVE('',#599,#562,#726,.T.);
#471=EDGE_CURVE('',#600,#565,#727,.T.);
#472=EDGE_CURVE('',#598,#600,#728,.T.);
#473=EDGE_CURVE('',#601,#564,#729,.T.);
#474=EDGE_CURVE('',#600,#601,#730,.T.);
#475=EDGE_CURVE('',#601,#599,#731,.T.);
#476=EDGE_CURVE('',#602,#602,#38,.T.);
#477=EDGE_CURVE('',#603,#604,#732,.T.);
#478=EDGE_CURVE('',#605,#603,#733,.T.);
#479=EDGE_CURVE('',#606,#605,#734,.T.);
#480=EDGE_CURVE('',#604,#606,#735,.T.);
#481=EDGE_CURVE('',#607,#607,#39,.T.);
#482=EDGE_CURVE('',#608,#609,#736,.T.);
#483=EDGE_CURVE('',#610,#608,#737,.T.);
#484=EDGE_CURVE('',#611,#610,#738,.T.);
#485=EDGE_CURVE('',#609,#611,#739,.T.);
#486=EDGE_CURVE('',#612,#613,#740,.T.);
#487=EDGE_CURVE('',#613,#614,#741,.T.);
#488=EDGE_CURVE('',#614,#615,#742,.T.);
#489=EDGE_CURVE('',#615,#612,#743,.T.);
#490=EDGE_CURVE('',#616,#615,#744,.T.);
#491=EDGE_CURVE('',#617,#616,#745,.T.);
#492=EDGE_CURVE('',#612,#617,#746,.F.);
#493=EDGE_CURVE('',#618,#614,#747,.F.);
#494=EDGE_CURVE('',#616,#618,#748,.T.);
#495=EDGE_CURVE('',#613,#619,#749,.F.);
#496=EDGE_CURVE('',#618,#619,#750,.T.);
#497=EDGE_CURVE('',#619,#617,#751,.T.);
#498=EDGE_CURVE('',#619,#604,#752,.T.);
#499=EDGE_CURVE('',#617,#603,#753,.T.);
#500=EDGE_CURVE('',#618,#606,#754,.T.);
#501=EDGE_CURVE('',#616,#605,#755,.T.);
#502=EDGE_CURVE('',#620,#621,#756,.T.);
#503=EDGE_CURVE('',#621,#622,#757,.T.);
#504=EDGE_CURVE('',#622,#623,#758,.T.);
#505=EDGE_CURVE('',#623,#620,#759,.T.);
#506=EDGE_CURVE('',#621,#624,#760,.F.);
#507=EDGE_CURVE('',#625,#624,#761,.T.);
#508=EDGE_CURVE('',#625,#622,#762,.F.);
#509=EDGE_CURVE('',#620,#626,#763,.F.);
#510=EDGE_CURVE('',#624,#626,#764,.T.);
#511=EDGE_CURVE('',#627,#623,#765,.T.);
#512=EDGE_CURVE('',#626,#627,#766,.T.);
#513=EDGE_CURVE('',#627,#625,#767,.T.);
#514=EDGE_CURVE('',#627,#610,#768,.T.);
#515=EDGE_CURVE('',#625,#611,#769,.T.);
#516=EDGE_CURVE('',#626,#608,#770,.T.);
#517=EDGE_CURVE('',#624,#609,#771,.T.);
#518=EDGE_CURVE('',#543,#526,#40,.T.);
#519=EDGE_CURVE('',#591,#542,#772,.T.);
#520=EDGE_CURVE('',#522,#539,#41,.T.);
#521=EDGE_CURVE('',#538,#589,#773,.T.);
#522=VERTEX_POINT('',#2154);
#523=VERTEX_POINT('',#2155);
#524=VERTEX_POINT('',#2157);
#525=VERTEX_POINT('',#2159);
#526=VERTEX_POINT('',#2163);
#527=VERTEX_POINT('',#2164);
#528=VERTEX_POINT('',#2166);
#529=VERTEX_POINT('',#2168);
#530=VERTEX_POINT('',#2172);
#531=VERTEX_POINT('',#2174);
#532=VERTEX_POINT('',#2176);
#533=VERTEX_POINT('',#2180);
#534=VERTEX_POINT('',#2182);
#535=VERTEX_POINT('',#2183);
#536=VERTEX_POINT('',#2188);
#537=VERTEX_POINT('',#2190);
#538=VERTEX_POINT('',#2192);
#539=VERTEX_POINT('',#2193);
#540=VERTEX_POINT('',#2195);
#541=VERTEX_POINT('',#2198);
#542=VERTEX_POINT('',#2200);
#543=VERTEX_POINT('',#2202);
#544=VERTEX_POINT('',#2204);
#545=VERTEX_POINT('',#2207);
#546=VERTEX_POINT('',#2209);
#547=VERTEX_POINT('',#2211);
#548=VERTEX_POINT('',#2213);
#549=VERTEX_POINT('',#2215);
#550=VERTEX_POINT('',#2219);
#551=VERTEX_POINT('',#2220);
#552=VERTEX_POINT('',#2222);
#553=VERTEX_POINT('',#2224);
#554=VERTEX_POINT('',#2228);
#555=VERTEX_POINT('',#2229);
#556=VERTEX_POINT('',#2231);
#557=VERTEX_POINT('',#2233);
#558=VERTEX_POINT('',#2244);
#559=VERTEX_POINT('',#2245);
#560=VERTEX_POINT('',#2247);
#561=VERTEX_POINT('',#2249);
#562=VERTEX_POINT('',#2252);
#563=VERTEX_POINT('',#2253);
#564=VERTEX_POINT('',#2255);
#565=VERTEX_POINT('',#2257);
#566=VERTEX_POINT('',#2260);
#567=VERTEX_POINT('',#2261);
#568=VERTEX_POINT('',#2263);
#569=VERTEX_POINT('',#2265);
#570=VERTEX_POINT('',#2268);
#571=VERTEX_POINT('',#2269);
#572=VERTEX_POINT('',#2271);
#573=VERTEX_POINT('',#2273);
#574=VERTEX_POINT('',#2277);
#575=VERTEX_POINT('',#2279);
#576=VERTEX_POINT('',#2283);
#577=VERTEX_POINT('',#2285);
#578=VERTEX_POINT('',#2294);
#579=VERTEX_POINT('',#2296);
#580=VERTEX_POINT('',#2300);
#581=VERTEX_POINT('',#2304);
#582=VERTEX_POINT('',#2311);
#583=VERTEX_POINT('',#2312);
#584=VERTEX_POINT('',#2314);
#585=VERTEX_POINT('',#2316);
#586=VERTEX_POINT('',#2320);
#587=VERTEX_POINT('',#2324);
#588=VERTEX_POINT('',#2325);
#589=VERTEX_POINT('',#2330);
#590=VERTEX_POINT('',#2333);
#591=VERTEX_POINT('',#2337);
#592=VERTEX_POINT('',#2343);
#593=VERTEX_POINT('',#2345);
#594=VERTEX_POINT('',#2359);
#595=VERTEX_POINT('',#2362);
#596=VERTEX_POINT('',#2366);
#597=VERTEX_POINT('',#2369);
#598=VERTEX_POINT('',#2375);
#599=VERTEX_POINT('',#2377);
#600=VERTEX_POINT('',#2381);
#601=VERTEX_POINT('',#2385);
#602=VERTEX_POINT('',#2392);
#603=VERTEX_POINT('',#2394);
#604=VERTEX_POINT('',#2395);
#605=VERTEX_POINT('',#2397);
#606=VERTEX_POINT('',#2399);
#607=VERTEX_POINT('',#2404);
#608=VERTEX_POINT('',#2406);
#609=VERTEX_POINT('',#2407);
#610=VERTEX_POINT('',#2409);
#611=VERTEX_POINT('',#2411);
#612=VERTEX_POINT('',#2416);
#613=VERTEX_POINT('',#2417);
#614=VERTEX_POINT('',#2419);
#615=VERTEX_POINT('',#2421);
#616=VERTEX_POINT('',#2425);
#617=VERTEX_POINT('',#2427);
#618=VERTEX_POINT('',#2431);
#619=VERTEX_POINT('',#2435);
#620=VERTEX_POINT('',#2449);
#621=VERTEX_POINT('',#2450);
#622=VERTEX_POINT('',#2452);
#623=VERTEX_POINT('',#2454);
#624=VERTEX_POINT('',#2458);
#625=VERTEX_POINT('',#2460);
#626=VERTEX_POINT('',#2464);
#627=VERTEX_POINT('',#2468);
#628=LINE('',#2153,#774);
#629=LINE('',#2156,#775);
#630=LINE('',#2158,#776);
#631=LINE('',#2160,#777);
#632=LINE('',#2162,#778);
#633=LINE('',#2165,#779);
#634=LINE('',#2167,#780);
#635=LINE('',#2169,#781);
#636=LINE('',#2175,#782);
#637=LINE('',#2177,#783);
#638=LINE('',#2181,#784);
#639=LINE('',#2185,#785);
#640=LINE('',#2191,#786);
#641=LINE('',#2194,#787);
#642=LINE('',#2196,#788);
#643=LINE('',#2197,#789);
#644=LINE('',#2199,#790);
#645=LINE('',#2201,#791);
#646=LINE('',#2203,#792);
#647=LINE('',#2205,#793);
#648=LINE('',#2206,#794);
#649=LINE('',#2208,#795);
#650=LINE('',#2210,#796);
#651=LINE('',#2212,#797);
#652=LINE('',#2214,#798);
#653=LINE('',#2216,#799);
#654=LINE('',#2218,#800);
#655=LINE('',#2221,#801);
#656=LINE('',#2223,#802);
#657=LINE('',#2225,#803);
#658=LINE('',#2227,#804);
#659=LINE('',#2230,#805);
#660=LINE('',#2232,#806);
#661=LINE('',#2234,#807);
#662=LINE('',#2236,#808);
#663=LINE('',#2237,#809);
#664=LINE('',#2239,#810);
#665=LINE('',#2241,#811);
#666=LINE('',#2243,#812);
#667=LINE('',#2246,#813);
#668=LINE('',#2248,#814);
#669=LINE('',#2250,#815);
#670=LINE('',#2251,#816);
#671=LINE('',#2254,#817);
#672=LINE('',#2256,#818);
#673=LINE('',#2258,#819);
#674=LINE('',#2259,#820);
#675=LINE('',#2262,#821);
#676=LINE('',#2264,#822);
#677=LINE('',#2266,#823);
#678=LINE('',#2267,#824);
#679=LINE('',#2270,#825);
#680=LINE('',#2272,#826);
#681=LINE('',#2274,#827);
#682=LINE('',#2276,#828);
#683=LINE('',#2278,#829);
#684=LINE('',#2280,#830);
#685=LINE('',#2282,#831);
#686=LINE('',#2284,#832);
#687=LINE('',#2286,#833);
#688=LINE('',#2288,#834);
#689=LINE('',#2290,#835);
#690=LINE('',#2293,#836);
#691=LINE('',#2295,#837);
#692=LINE('',#2297,#838);
#693=LINE('',#2299,#839);
#694=LINE('',#2301,#840);
#695=LINE('',#2303,#841);
#696=LINE('',#2305,#842);
#697=LINE('',#2307,#843);
#698=LINE('',#2310,#844);
#699=LINE('',#2313,#845);
#700=LINE('',#2315,#846);
#701=LINE('',#2317,#847);
#702=LINE('',#2319,#848);
#703=LINE('',#2321,#849);
#704=LINE('',#2323,#850);
#705=LINE('',#2326,#851);
#706=LINE('',#2327,#852);
#707=LINE('',#2329,#853);
#708=LINE('',#2331,#854);
#709=LINE('',#2332,#855);
#710=LINE('',#2334,#856);
#711=LINE('',#2335,#857);
#712=LINE('',#2336,#858);
#713=LINE('',#2338,#859);
#714=LINE('',#2340,#860);
#715=LINE('',#2342,#861);
#716=LINE('',#2344,#862);
#717=LINE('',#2346,#863);
#718=LINE('',#2348,#864);
#719=LINE('',#2350,#865);
#720=LINE('',#2352,#866);
#721=LINE('',#2353,#867);
#722=LINE('',#2355,#868);
#723=LINE('',#2356,#869);
#724=LINE('',#2374,#870);
#725=LINE('',#2376,#871);
#726=LINE('',#2378,#872);
#727=LINE('',#2380,#873);
#728=LINE('',#2382,#874);
#729=LINE('',#2384,#875);
#730=LINE('',#2386,#876);
#731=LINE('',#2388,#877);
#732=LINE('',#2393,#878);
#733=LINE('',#2396,#879);
#734=LINE('',#2398,#880);
#735=LINE('',#2400,#881);
#736=LINE('',#2405,#882);
#737=LINE('',#2408,#883);
#738=LINE('',#2410,#884);
#739=LINE('',#2412,#885);
#740=LINE('',#2415,#886);
#741=LINE('',#2418,#887);
#742=LINE('',#2420,#888);
#743=LINE('',#2422,#889);
#744=LINE('',#2424,#890);
#745=LINE('',#2426,#891);
#746=LINE('',#2428,#892);
#747=LINE('',#2430,#893);
#748=LINE('',#2432,#894);
#749=LINE('',#2434,#895);
#750=LINE('',#2436,#896);
#751=LINE('',#2438,#897);
#752=LINE('',#2440,#898);
#753=LINE('',#2441,#899);
#754=LINE('',#2443,#900);
#755=LINE('',#2445,#901);
#756=LINE('',#2448,#902);
#757=LINE('',#2451,#903);
#758=LINE('',#2453,#904);
#759=LINE('',#2455,#905);
#760=LINE('',#2457,#906);
#761=LINE('',#2459,#907);
#762=LINE('',#2461,#908);
#763=LINE('',#2463,#909);
#764=LINE('',#2465,#910);
#765=LINE('',#2467,#911);
#766=LINE('',#2469,#912);
#767=LINE('',#2471,#913);
#768=LINE('',#2473,#914);
#769=LINE('',#2474,#915);
#770=LINE('',#2476,#916);
#771=LINE('',#2478,#917);
#772=LINE('',#2482,#918);
#773=LINE('',#2487,#919);
#774=VECTOR('',#1835,1000.);
#775=VECTOR('',#1836,1000.);
#776=VECTOR('',#1837,1000.);
#777=VECTOR('',#1838,1000.);
#778=VECTOR('',#1841,1000.);
#779=VECTOR('',#1842,1000.);
#780=VECTOR('',#1843,1000.);
#781=VECTOR('',#1844,1000.);
#782=VECTOR('',#1851,1000.);
#783=VECTOR('',#1852,1000.);
#784=VECTOR('',#1857,1000.);
#785=VECTOR('',#1860,1000.);
#786=VECTOR('',#1867,1000.);
#787=VECTOR('',#1868,1000.);
#788=VECTOR('',#1869,1000.);
#789=VECTOR('',#1870,1000.);
#790=VECTOR('',#1871,1000.);
#791=VECTOR('',#1872,1000.);
#792=VECTOR('',#1873,1000.);
#793=VECTOR('',#1874,1000.);
#794=VECTOR('',#1875,1000.);
#795=VECTOR('',#1876,1000.);
#796=VECTOR('',#1877,1000.);
#797=VECTOR('',#1878,1000.);
#798=VECTOR('',#1879,1000.);
#799=VECTOR('',#1880,1000.);
#800=VECTOR('',#1883,1000.);
#801=VECTOR('',#1884,1000.);
#802=VECTOR('',#1885,1000.);
#803=VECTOR('',#1886,1000.);
#804=VECTOR('',#1889,1000.);
#805=VECTOR('',#1890,1000.);
#806=VECTOR('',#1891,1000.);
#807=VECTOR('',#1892,1000.);
#808=VECTOR('',#1895,1000.);
#809=VECTOR('',#1896,1000.);
#810=VECTOR('',#1899,1000.);
#811=VECTOR('',#1902,1000.);
#812=VECTOR('',#1905,1000.);
#813=VECTOR('',#1906,1000.);
#814=VECTOR('',#1907,1000.);
#815=VECTOR('',#1908,1000.);
#816=VECTOR('',#1909,1000.);
#817=VECTOR('',#1910,1000.);
#818=VECTOR('',#1911,1000.);
#819=VECTOR('',#1912,1000.);
#820=VECTOR('',#1913,1000.);
#821=VECTOR('',#1914,1000.);
#822=VECTOR('',#1915,1000.);
#823=VECTOR('',#1916,1000.);
#824=VECTOR('',#1917,1000.);
#825=VECTOR('',#1918,1000.);
#826=VECTOR('',#1919,1000.);
#827=VECTOR('',#1920,1000.);
#828=VECTOR('',#1923,1000.);
#829=VECTOR('',#1924,1000.);
#830=VECTOR('',#1925,1000.);
#831=VECTOR('',#1928,1000.);
#832=VECTOR('',#1929,1000.);
#833=VECTOR('',#1930,1000.);
#834=VECTOR('',#1933,1000.);
#835=VECTOR('',#1936,1000.);
#836=VECTOR('',#1941,1000.);
#837=VECTOR('',#1942,1000.);
#838=VECTOR('',#1943,1000.);
#839=VECTOR('',#1946,1000.);
#840=VECTOR('',#1947,1000.);
#841=VECTOR('',#1950,1000.);
#842=VECTOR('',#1951,1000.);
#843=VECTOR('',#1954,1000.);
#844=VECTOR('',#1959,1000.);
#845=VECTOR('',#1960,1000.);
#846=VECTOR('',#1961,1000.);
#847=VECTOR('',#1962,1000.);
#848=VECTOR('',#1965,1000.);
#849=VECTOR('',#1966,1000.);
#850=VECTOR('',#1969,1000.);
#851=VECTOR('',#1970,1000.);
#852=VECTOR('',#1971,1000.);
#853=VECTOR('',#1974,1000.);
#854=VECTOR('',#1975,1000.);
#855=VECTOR('',#1976,1000.);
#856=VECTOR('',#1977,1000.);
#857=VECTOR('',#1978,1000.);
#858=VECTOR('',#1979,1000.);
#859=VECTOR('',#1980,1000.);
#860=VECTOR('',#1983,1000.);
#861=VECTOR('',#1986,1000.);
#862=VECTOR('',#1987,1000.);
#863=VECTOR('',#1988,1000.);
#864=VECTOR('',#1991,1000.);
#865=VECTOR('',#1994,1000.);
#866=VECTOR('',#1997,1000.);
#867=VECTOR('',#1998,1000.);
#868=VECTOR('',#2001,1000.);
#869=VECTOR('',#2002,1000.);
#870=VECTOR('',#2029,1000.);
#871=VECTOR('',#2030,1000.);
#872=VECTOR('',#2031,1000.);
#873=VECTOR('',#2034,1000.);
#874=VECTOR('',#2035,1000.);
#875=VECTOR('',#2038,1000.);
#876=VECTOR('',#2039,1000.);
#877=VECTOR('',#2042,1000.);
#878=VECTOR('',#2049,1000.);
#879=VECTOR('',#2050,1000.);
#880=VECTOR('',#2051,1000.);
#881=VECTOR('',#2052,1000.);
#882=VECTOR('',#2059,1000.);
#883=VECTOR('',#2060,1000.);
#884=VECTOR('',#2061,1000.);
#885=VECTOR('',#2062,1000.);
#886=VECTOR('',#2067,1000.);
#887=VECTOR('',#2068,1000.);
#888=VECTOR('',#2069,1000.);
#889=VECTOR('',#2070,1000.);
#890=VECTOR('',#2073,1000.);
#891=VECTOR('',#2074,1000.);
#892=VECTOR('',#2075,1000.);
#893=VECTOR('',#2078,1000.);
#894=VECTOR('',#2079,1000.);
#895=VECTOR('',#2082,1000.);
#896=VECTOR('',#2083,1000.);
#897=VECTOR('',#2086,1000.);
#898=VECTOR('',#2089,1000.);
#899=VECTOR('',#2090,1000.);
#900=VECTOR('',#2093,1000.);
#901=VECTOR('',#2096,1000.);
#902=VECTOR('',#2101,1000.);
#903=VECTOR('',#2102,1000.);
#904=VECTOR('',#2103,1000.);
#905=VECTOR('',#2104,1000.);
#906=VECTOR('',#2107,1000.);
#907=VECTOR('',#2108,1000.);
#908=VECTOR('',#2109,1000.);
#909=VECTOR('',#2112,1000.);
#910=VECTOR('',#2113,1000.);
#911=VECTOR('',#2116,1000.);
#912=VECTOR('',#2117,1000.);
#913=VECTOR('',#2120,1000.);
#914=VECTOR('',#2123,1000.);
#915=VECTOR('',#2124,1000.);
#916=VECTOR('',#2127,1000.);
#917=VECTOR('',#2130,1000.);
#918=VECTOR('',#2137,1000.);
#919=VECTOR('',#2146,1000.);
#920=EDGE_LOOP('',(#42,#43,#44,#45));
#921=EDGE_LOOP('',(#46,#47,#48,#49));
#922=EDGE_LOOP('',(#50));
#923=EDGE_LOOP('',(#51,#52,#53,#54));
#924=EDGE_LOOP('',(#55));
#925=EDGE_LOOP('',(#56,#57,#58,#59));
#926=EDGE_LOOP('',(#60));
#927=EDGE_LOOP('',(#61));
#928=EDGE_LOOP('',(#62,#63,#64,#65,#66,#67,#68,#69,#70,#71,#72,#73,#74,
#75));
#929=EDGE_LOOP('',(#76,#77,#78,#79));
#930=EDGE_LOOP('',(#80,#81,#82,#83));
#931=EDGE_LOOP('',(#84,#85,#86,#87));
#932=EDGE_LOOP('',(#88,#89,#90,#91));
#933=EDGE_LOOP('',(#92,#93,#94,#95));
#934=EDGE_LOOP('',(#96,#97,#98,#99));
#935=EDGE_LOOP('',(#100,#101,#102,#103));
#936=EDGE_LOOP('',(#104,#105,#106,#107));
#937=EDGE_LOOP('',(#108,#109,#110,#111));
#938=EDGE_LOOP('',(#112,#113,#114,#115));
#939=EDGE_LOOP('',(#116,#117,#118,#119));
#940=EDGE_LOOP('',(#120,#121,#122,#123));
#941=EDGE_LOOP('',(#124,#125,#126,#127));
#942=EDGE_LOOP('',(#128,#129,#130,#131));
#943=EDGE_LOOP('',(#132,#133,#134,#135));
#944=EDGE_LOOP('',(#136,#137,#138,#139));
#945=EDGE_LOOP('',(#140,#141,#142,#143));
#946=EDGE_LOOP('',(#144,#145,#146,#147));
#947=EDGE_LOOP('',(#148,#149,#150,#151));
#948=EDGE_LOOP('',(#152,#153,#154,#155));
#949=EDGE_LOOP('',(#156,#157,#158,#159));
#950=EDGE_LOOP('',(#160,#161,#162,#163));
#951=EDGE_LOOP('',(#164,#165,#166,#167));
#952=EDGE_LOOP('',(#168,#169,#170,#171,#172,#173,#174,#175,#176,#177,#178,
#179,#180,#181));
#953=EDGE_LOOP('',(#182,#183,#184,#185));
#954=EDGE_LOOP('',(#186,#187,#188,#189));
#955=EDGE_LOOP('',(#190,#191,#192,#193));
#956=EDGE_LOOP('',(#194,#195,#196,#197));
#957=EDGE_LOOP('',(#198,#199,#200,#201,#202,#203,#204,#205));
#958=EDGE_LOOP('',(#206,#207,#208,#209,#210,#211,#212,#213));
#959=EDGE_LOOP('',(#214));
#960=EDGE_LOOP('',(#215));
#961=EDGE_LOOP('',(#216));
#962=EDGE_LOOP('',(#217));
#963=EDGE_LOOP('',(#218));
#964=EDGE_LOOP('',(#219));
#965=EDGE_LOOP('',(#220));
#966=EDGE_LOOP('',(#221));
#967=EDGE_LOOP('',(#222));
#968=EDGE_LOOP('',(#223));
#969=EDGE_LOOP('',(#224,#225,#226,#227));
#970=EDGE_LOOP('',(#228,#229,#230,#231));
#971=EDGE_LOOP('',(#232,#233,#234,#235));
#972=EDGE_LOOP('',(#236,#237,#238,#239));
#973=EDGE_LOOP('',(#240,#241,#242,#243));
#974=EDGE_LOOP('',(#244,#245,#246,#247));
#975=EDGE_LOOP('',(#248,#249,#250,#251));
#976=EDGE_LOOP('',(#252));
#977=EDGE_LOOP('',(#253,#254,#255,#256));
#978=EDGE_LOOP('',(#257));
#979=EDGE_LOOP('',(#258));
#980=EDGE_LOOP('',(#259));
#981=EDGE_LOOP('',(#260,#261,#262,#263));
#982=EDGE_LOOP('',(#264));
#983=EDGE_LOOP('',(#265));
#984=EDGE_LOOP('',(#266,#267,#268,#269));
#985=EDGE_LOOP('',(#270,#271,#272,#273));
#986=EDGE_LOOP('',(#274,#275,#276,#277));
#987=EDGE_LOOP('',(#278,#279,#280,#281));
#988=EDGE_LOOP('',(#282,#283,#284,#285));
#989=EDGE_LOOP('',(#286,#287,#288,#289));
#990=EDGE_LOOP('',(#290,#291,#292,#293));
#991=EDGE_LOOP('',(#294,#295,#296,#297));
#992=EDGE_LOOP('',(#298,#299,#300,#301));
#993=EDGE_LOOP('',(#302,#303,#304,#305));
#994=EDGE_LOOP('',(#306,#307,#308,#309));
#995=EDGE_LOOP('',(#310,#311,#312,#313));
#996=EDGE_LOOP('',(#314,#315,#316,#317));
#997=EDGE_LOOP('',(#318,#319,#320,#321));
#998=EDGE_LOOP('',(#322,#323,#324,#325));
#999=EDGE_LOOP('',(#326,#327,#328,#329));
#1000=EDGE_LOOP('',(#330,#331,#332,#333));
#1001=EDGE_LOOP('',(#334,#335,#336,#337));
#1002=EDGE_LOOP('',(#338,#339,#340,#341));
#1003=EDGE_LOOP('',(#342,#343,#344,#345));
#1004=EDGE_LOOP('',(#346,#347,#348,#349));
#1005=EDGE_LOOP('',(#350,#351,#352,#353));
#1006=EDGE_LOOP('',(#354,#355,#356,#357));
#1007=EDGE_LOOP('',(#358,#359,#360,#361));
#1008=FACE_BOUND('',#920,.T.);
#1009=FACE_BOUND('',#921,.T.);
#1010=FACE_BOUND('',#922,.T.);
#1011=FACE_BOUND('',#923,.T.);
#1012=FACE_BOUND('',#924,.T.);
#1013=FACE_BOUND('',#925,.T.);
#1014=FACE_BOUND('',#926,.T.);
#1015=FACE_BOUND('',#927,.T.);
#1016=FACE_BOUND('',#928,.T.);
#1017=FACE_BOUND('',#929,.T.);
#1018=FACE_BOUND('',#930,.T.);
#1019=FACE_BOUND('',#931,.T.);
#1020=FACE_BOUND('',#932,.T.);
#1021=FACE_BOUND('',#933,.T.);
#1022=FACE_BOUND('',#934,.T.);
#1023=FACE_BOUND('',#935,.T.);
#1024=FACE_BOUND('',#936,.T.);
#1025=FACE_BOUND('',#937,.T.);
#1026=FACE_BOUND('',#938,.T.);
#1027=FACE_BOUND('',#939,.T.);
#1028=FACE_BOUND('',#940,.T.);
#1029=FACE_BOUND('',#941,.T.);
#1030=FACE_BOUND('',#942,.T.);
#1031=FACE_BOUND('',#943,.T.);
#1032=FACE_BOUND('',#944,.T.);
#1033=FACE_BOUND('',#945,.T.);
#1034=FACE_BOUND('',#946,.T.);
#1035=FACE_BOUND('',#947,.T.);
#1036=FACE_BOUND('',#948,.T.);
#1037=FACE_BOUND('',#949,.T.);
#1038=FACE_BOUND('',#950,.T.);
#1039=FACE_BOUND('',#951,.T.);
#1040=FACE_BOUND('',#952,.T.);
#1041=FACE_BOUND('',#953,.T.);
#1042=FACE_BOUND('',#954,.T.);
#1043=FACE_BOUND('',#955,.T.);
#1044=FACE_BOUND('',#956,.T.);
#1045=FACE_BOUND('',#957,.T.);
#1046=FACE_BOUND('',#958,.T.);
#1047=FACE_BOUND('',#959,.T.);
#1048=FACE_BOUND('',#960,.T.);
#1049=FACE_BOUND('',#961,.T.);
#1050=FACE_BOUND('',#962,.T.);
#1051=FACE_BOUND('',#963,.T.);
#1052=FACE_BOUND('',#964,.T.);
#1053=FACE_BOUND('',#965,.T.);
#1054=FACE_BOUND('',#966,.T.);
#1055=FACE_BOUND('',#967,.T.);
#1056=FACE_BOUND('',#968,.T.);
#1057=FACE_BOUND('',#969,.T.);
#1058=FACE_BOUND('',#970,.T.);
#1059=FACE_BOUND('',#971,.T.);
#1060=FACE_BOUND('',#972,.T.);
#1061=FACE_BOUND('',#973,.T.);
#1062=FACE_BOUND('',#974,.T.);
#1063=FACE_BOUND('',#975,.T.);
#1064=FACE_BOUND('',#976,.T.);
#1065=FACE_BOUND('',#977,.T.);
#1066=FACE_BOUND('',#978,.T.);
#1067=FACE_BOUND('',#979,.T.);
#1068=FACE_BOUND('',#980,.T.);
#1069=FACE_BOUND('',#981,.T.);
#1070=FACE_BOUND('',#982,.T.);
#1071=FACE_BOUND('',#983,.T.);
#1072=FACE_BOUND('',#984,.T.);
#1073=FACE_BOUND('',#985,.T.);
#1074=FACE_BOUND('',#986,.T.);
#1075=FACE_BOUND('',#987,.T.);
#1076=FACE_BOUND('',#988,.T.);
#1077=FACE_BOUND('',#989,.T.);
#1078=FACE_BOUND('',#990,.T.);
#1079=FACE_BOUND('',#991,.T.);
#1080=FACE_BOUND('',#992,.T.);
#1081=FACE_BOUND('',#993,.T.);
#1082=FACE_BOUND('',#994,.T.);
#1083=FACE_BOUND('',#995,.T.);
#1084=FACE_BOUND('',#996,.T.);
#1085=FACE_BOUND('',#997,.T.);
#1086=FACE_BOUND('',#998,.T.);
#1087=FACE_BOUND('',#999,.T.);
#1088=FACE_BOUND('',#1000,.T.);
#1089=FACE_BOUND('',#1001,.T.);
#1090=FACE_BOUND('',#1002,.T.);
#1091=FACE_BOUND('',#1003,.T.);
#1092=FACE_BOUND('',#1004,.T.);
#1093=FACE_BOUND('',#1005,.T.);
#1094=FACE_BOUND('',#1006,.T.);
#1095=FACE_BOUND('',#1007,.T.);
#1096=PLANE('',#1745);
#1097=PLANE('',#1746);
#1098=PLANE('',#1747);
#1099=PLANE('',#1750);
#1100=PLANE('',#1753);
#1101=PLANE('',#1756);
#1102=PLANE('',#1757);
#1103=PLANE('',#1758);
#1104=PLANE('',#1759);
#1105=PLANE('',#1760);
#1106=PLANE('',#1761);
#1107=PLANE('',#1762);
#1108=PLANE('',#1763);
#1109=PLANE('',#1764);
#1110=PLANE('',#1765);
#1111=PLANE('',#1766);
#1112=PLANE('',#1767);
#1113=PLANE('',#1768);
#1114=PLANE('',#1769);
#1115=PLANE('',#1770);
#1116=PLANE('',#1771);
#1117=PLANE('',#1772);
#1118=PLANE('',#1773);
#1119=PLANE('',#1774);
#1120=PLANE('',#1775);
#1121=PLANE('',#1776);
#1122=PLANE('',#1777);
#1123=PLANE('',#1778);
#1124=PLANE('',#1779);
#1125=PLANE('',#1780);
#1126=PLANE('',#1781);
#1127=PLANE('',#1782);
#1128=PLANE('',#1791);
#1129=PLANE('',#1792);
#1130=PLANE('',#1793);
#1131=PLANE('',#1794);
#1132=PLANE('',#1795);
#1133=PLANE('',#1796);
#1134=PLANE('',#1797);
#1135=PLANE('',#1798);
#1136=PLANE('',#1799);
#1137=PLANE('',#1802);
#1138=PLANE('',#1805);
#1139=PLANE('',#1806);
#1140=PLANE('',#1807);
#1141=PLANE('',#1808);
#1142=PLANE('',#1809);
#1143=PLANE('',#1810);
#1144=PLANE('',#1811);
#1145=PLANE('',#1812);
#1146=PLANE('',#1813);
#1147=PLANE('',#1814);
#1148=PLANE('',#1815);
#1149=PLANE('',#1816);
#1150=PLANE('',#1817);
#1151=PLANE('',#1818);
#1152=PLANE('',#1819);
#1153=PLANE('',#1820);
#1154=PLANE('',#1821);
#1155=PLANE('',#1822);
#1156=PLANE('',#1823);
#1157=PLANE('',#1825);
#1158=PLANE('',#1827);
#1159=PLANE('',#1830);
#1160=STYLED_ITEM('',(#1232),#1668);
#1161=STYLED_ITEM('',(#1233),#1669);
#1162=STYLED_ITEM('',(#1234),#1670);
#1163=STYLED_ITEM('',(#1235),#1671);
#1164=STYLED_ITEM('',(#1236),#1672);
#1165=STYLED_ITEM('',(#1237),#1673);
#1166=STYLED_ITEM('',(#1238),#1674);
#1167=STYLED_ITEM('',(#1239),#1675);
#1168=STYLED_ITEM('',(#1240),#1676);
#1169=STYLED_ITEM('',(#1241),#1677);
#1170=STYLED_ITEM('',(#1242),#1678);
#1171=STYLED_ITEM('',(#1243),#1679);
#1172=STYLED_ITEM('',(#1244),#1680);
#1173=STYLED_ITEM('',(#1245),#1681);
#1174=STYLED_ITEM('',(#1246),#1682);
#1175=STYLED_ITEM('',(#1247),#1683);
#1176=STYLED_ITEM('',(#1248),#1684);
#1177=STYLED_ITEM('',(#1249),#1685);
#1178=STYLED_ITEM('',(#1250),#1686);
#1179=STYLED_ITEM('',(#1251),#1687);
#1180=STYLED_ITEM('',(#1252),#1688);
#1181=STYLED_ITEM('',(#1253),#1689);
#1182=STYLED_ITEM('',(#1254),#1690);
#1183=STYLED_ITEM('',(#1255),#1691);
#1184=STYLED_ITEM('',(#1256),#1692);
#1185=STYLED_ITEM('',(#1257),#1693);
#1186=STYLED_ITEM('',(#1258),#1694);
#1187=STYLED_ITEM('',(#1259),#1695);
#1188=STYLED_ITEM('',(#1260),#1696);
#1189=STYLED_ITEM('',(#1261),#1697);
#1190=STYLED_ITEM('',(#1262),#1698);
#1191=STYLED_ITEM('',(#1263),#1699);
#1192=STYLED_ITEM('',(#1264),#1700);
#1193=STYLED_ITEM('',(#1265),#1701);
#1194=STYLED_ITEM('',(#1266),#1702);
#1195=STYLED_ITEM('',(#1267),#1703);
#1196=STYLED_ITEM('',(#1268),#1704);
#1197=STYLED_ITEM('',(#1269),#1705);
#1198=STYLED_ITEM('',(#1270),#1706);
#1199=STYLED_ITEM('',(#1271),#1707);
#1200=STYLED_ITEM('',(#1272),#1708);
#1201=STYLED_ITEM('',(#1273),#1709);
#1202=STYLED_ITEM('',(#1274),#1710);
#1203=STYLED_ITEM('',(#1275),#1711);
#1204=STYLED_ITEM('',(#1276),#1712);
#1205=STYLED_ITEM('',(#1277),#1713);
#1206=STYLED_ITEM('',(#1278),#1714);
#1207=STYLED_ITEM('',(#1279),#1715);
#1208=STYLED_ITEM('',(#1280),#1716);
#1209=STYLED_ITEM('',(#1281),#1717);
#1210=STYLED_ITEM('',(#1282),#1718);
#1211=STYLED_ITEM('',(#1283),#1719);
#1212=STYLED_ITEM('',(#1284),#1720);
#1213=STYLED_ITEM('',(#1285),#1721);
#1214=STYLED_ITEM('',(#1286),#1722);
#1215=STYLED_ITEM('',(#1287),#1723);
#1216=STYLED_ITEM('',(#1288),#1724);
#1217=STYLED_ITEM('',(#1289),#1725);
#1218=STYLED_ITEM('',(#1290),#1726);
#1219=STYLED_ITEM('',(#1291),#1727);
#1220=STYLED_ITEM('',(#1292),#1728);
#1221=STYLED_ITEM('',(#1293),#1729);
#1222=STYLED_ITEM('',(#1294),#1730);
#1223=STYLED_ITEM('',(#1295),#1731);
#1224=STYLED_ITEM('',(#1296),#1732);
#1225=STYLED_ITEM('',(#1297),#1733);
#1226=STYLED_ITEM('',(#1298),#1734);
#1227=STYLED_ITEM('',(#1299),#1735);
#1228=STYLED_ITEM('',(#1300),#1736);
#1229=STYLED_ITEM('',(#1301),#1737);
#1230=STYLED_ITEM('',(#1302),#1738);
#1231=STYLED_ITEM('',(#1303),#1739);
#1232=PRESENTATION_STYLE_ASSIGNMENT((#1304));
#1233=PRESENTATION_STYLE_ASSIGNMENT((#1305));
#1234=PRESENTATION_STYLE_ASSIGNMENT((#1306));
#1235=PRESENTATION_STYLE_ASSIGNMENT((#1307));
#1236=PRESENTATION_STYLE_ASSIGNMENT((#1308));
#1237=PRESENTATION_STYLE_ASSIGNMENT((#1309));
#1238=PRESENTATION_STYLE_ASSIGNMENT((#1310));
#1239=PRESENTATION_STYLE_ASSIGNMENT((#1311));
#1240=PRESENTATION_STYLE_ASSIGNMENT((#1312));
#1241=PRESENTATION_STYLE_ASSIGNMENT((#1313));
#1242=PRESENTATION_STYLE_ASSIGNMENT((#1314));
#1243=PRESENTATION_STYLE_ASSIGNMENT((#1315));
#1244=PRESENTATION_STYLE_ASSIGNMENT((#1316));
#1245=PRESENTATION_STYLE_ASSIGNMENT((#1317));
#1246=PRESENTATION_STYLE_ASSIGNMENT((#1318));
#1247=PRESENTATION_STYLE_ASSIGNMENT((#1319));
#1248=PRESENTATION_STYLE_ASSIGNMENT((#1320));
#1249=PRESENTATION_STYLE_ASSIGNMENT((#1321));
#1250=PRESENTATION_STYLE_ASSIGNMENT((#1322));
#1251=PRESENTATION_STYLE_ASSIGNMENT((#1323));
#1252=PRESENTATION_STYLE_ASSIGNMENT((#1324));
#1253=PRESENTATION_STYLE_ASSIGNMENT((#1325));
#1254=PRESENTATION_STYLE_ASSIGNMENT((#1326));
#1255=PRESENTATION_STYLE_ASSIGNMENT((#1327));
#1256=PRESENTATION_STYLE_ASSIGNMENT((#1328));
#1257=PRESENTATION_STYLE_ASSIGNMENT((#1329));
#1258=PRESENTATION_STYLE_ASSIGNMENT((#1330));
#1259=PRESENTATION_STYLE_ASSIGNMENT((#1331));
#1260=PRESENTATION_STYLE_ASSIGNMENT((#1332));
#1261=PRESENTATION_STYLE_ASSIGNMENT((#1333));
#1262=PRESENTATION_STYLE_ASSIGNMENT((#1334));
#1263=PRESENTATION_STYLE_ASSIGNMENT((#1335));
#1264=PRESENTATION_STYLE_ASSIGNMENT((#1336));
#1265=PRESENTATION_STYLE_ASSIGNMENT((#1337));
#1266=PRESENTATION_STYLE_ASSIGNMENT((#1338));
#1267=PRESENTATION_STYLE_ASSIGNMENT((#1339));
#1268=PRESENTATION_STYLE_ASSIGNMENT((#1340));
#1269=PRESENTATION_STYLE_ASSIGNMENT((#1341));
#1270=PRESENTATION_STYLE_ASSIGNMENT((#1342));
#1271=PRESENTATION_STYLE_ASSIGNMENT((#1343));
#1272=PRESENTATION_STYLE_ASSIGNMENT((#1344));
#1273=PRESENTATION_STYLE_ASSIGNMENT((#1345));
#1274=PRESENTATION_STYLE_ASSIGNMENT((#1346));
#1275=PRESENTATION_STYLE_ASSIGNMENT((#1347));
#1276=PRESENTATION_STYLE_ASSIGNMENT((#1348));
#1277=PRESENTATION_STYLE_ASSIGNMENT((#1349));
#1278=PRESENTATION_STYLE_ASSIGNMENT((#1350));
#1279=PRESENTATION_STYLE_ASSIGNMENT((#1351));
#1280=PRESENTATION_STYLE_ASSIGNMENT((#1352));
#1281=PRESENTATION_STYLE_ASSIGNMENT((#1353));
#1282=PRESENTATION_STYLE_ASSIGNMENT((#1354));
#1283=PRESENTATION_STYLE_ASSIGNMENT((#1355));
#1284=PRESENTATION_STYLE_ASSIGNMENT((#1356));
#1285=PRESENTATION_STYLE_ASSIGNMENT((#1357));
#1286=PRESENTATION_STYLE_ASSIGNMENT((#1358));
#1287=PRESENTATION_STYLE_ASSIGNMENT((#1359));
#1288=PRESENTATION_STYLE_ASSIGNMENT((#1360));
#1289=PRESENTATION_STYLE_ASSIGNMENT((#1361));
#1290=PRESENTATION_STYLE_ASSIGNMENT((#1362));
#1291=PRESENTATION_STYLE_ASSIGNMENT((#1363));
#1292=PRESENTATION_STYLE_ASSIGNMENT((#1364));
#1293=PRESENTATION_STYLE_ASSIGNMENT((#1365));
#1294=PRESENTATION_STYLE_ASSIGNMENT((#1366));
#1295=PRESENTATION_STYLE_ASSIGNMENT((#1367));
#1296=PRESENTATION_STYLE_ASSIGNMENT((#1368));
#1297=PRESENTATION_STYLE_ASSIGNMENT((#1369));
#1298=PRESENTATION_STYLE_ASSIGNMENT((#1370));
#1299=PRESENTATION_STYLE_ASSIGNMENT((#1371));
#1300=PRESENTATION_STYLE_ASSIGNMENT((#1372));
#1301=PRESENTATION_STYLE_ASSIGNMENT((#1373));
#1302=PRESENTATION_STYLE_ASSIGNMENT((#1374));
#1303=PRESENTATION_STYLE_ASSIGNMENT((#1375));
#1304=SURFACE_STYLE_USAGE(.BOTH.,#1376);
#1305=SURFACE_STYLE_USAGE(.BOTH.,#1377);
#1306=SURFACE_STYLE_USAGE(.BOTH.,#1378);
#1307=SURFACE_STYLE_USAGE(.BOTH.,#1379);
#1308=SURFACE_STYLE_USAGE(.BOTH.,#1380);
#1309=SURFACE_STYLE_USAGE(.BOTH.,#1381);
#1310=SURFACE_STYLE_USAGE(.BOTH.,#1382);
#1311=SURFACE_STYLE_USAGE(.BOTH.,#1383);
#1312=SURFACE_STYLE_USAGE(.BOTH.,#1384);
#1313=SURFACE_STYLE_USAGE(.BOTH.,#1385);
#1314=SURFACE_STYLE_USAGE(.BOTH.,#1386);
#1315=SURFACE_STYLE_USAGE(.BOTH.,#1387);
#1316=SURFACE_STYLE_USAGE(.BOTH.,#1388);
#1317=SURFACE_STYLE_USAGE(.BOTH.,#1389);
#1318=SURFACE_STYLE_USAGE(.BOTH.,#1390);
#1319=SURFACE_STYLE_USAGE(.BOTH.,#1391);
#1320=SURFACE_STYLE_USAGE(.BOTH.,#1392);
#1321=SURFACE_STYLE_USAGE(.BOTH.,#1393);
#1322=SURFACE_STYLE_USAGE(.BOTH.,#1394);
#1323=SURFACE_STYLE_USAGE(.BOTH.,#1395);
#1324=SURFACE_STYLE_USAGE(.BOTH.,#1396);
#1325=SURFACE_STYLE_USAGE(.BOTH.,#1397);
#1326=SURFACE_STYLE_USAGE(.BOTH.,#1398);
#1327=SURFACE_STYLE_USAGE(.BOTH.,#1399);
#1328=SURFACE_STYLE_USAGE(.BOTH.,#1400);
#1329=SURFACE_STYLE_USAGE(.BOTH.,#1401);
#1330=SURFACE_STYLE_USAGE(.BOTH.,#1402);
#1331=SURFACE_STYLE_USAGE(.BOTH.,#1403);
#1332=SURFACE_STYLE_USAGE(.BOTH.,#1404);
#1333=SURFACE_STYLE_USAGE(.BOTH.,#1405);
#1334=SURFACE_STYLE_USAGE(.BOTH.,#1406);
#1335=SURFACE_STYLE_USAGE(.BOTH.,#1407);
#1336=SURFACE_STYLE_USAGE(.BOTH.,#1408);
#1337=SURFACE_STYLE_USAGE(.BOTH.,#1409);
#1338=SURFACE_STYLE_USAGE(.BOTH.,#1410);
#1339=SURFACE_STYLE_USAGE(.BOTH.,#1411);
#1340=SURFACE_STYLE_USAGE(.BOTH.,#1412);
#1341=SURFACE_STYLE_USAGE(.BOTH.,#1413);
#1342=SURFACE_STYLE_USAGE(.BOTH.,#1414);
#1343=SURFACE_STYLE_USAGE(.BOTH.,#1415);
#1344=SURFACE_STYLE_USAGE(.BOTH.,#1416);
#1345=SURFACE_STYLE_USAGE(.BOTH.,#1417);
#1346=SURFACE_STYLE_USAGE(.BOTH.,#1418);
#1347=SURFACE_STYLE_USAGE(.BOTH.,#1419);
#1348=SURFACE_STYLE_USAGE(.BOTH.,#1420);
#1349=SURFACE_STYLE_USAGE(.BOTH.,#1421);
#1350=SURFACE_STYLE_USAGE(.BOTH.,#1422);
#1351=SURFACE_STYLE_USAGE(.BOTH.,#1423);
#1352=SURFACE_STYLE_USAGE(.BOTH.,#1424);
#1353=SURFACE_STYLE_USAGE(.BOTH.,#1425);
#1354=SURFACE_STYLE_USAGE(.BOTH.,#1426);
#1355=SURFACE_STYLE_USAGE(.BOTH.,#1427);
#1356=SURFACE_STYLE_USAGE(.BOTH.,#1428);
#1357=SURFACE_STYLE_USAGE(.BOTH.,#1429);
#1358=SURFACE_STYLE_USAGE(.BOTH.,#1430);
#1359=SURFACE_STYLE_USAGE(.BOTH.,#1431);
#1360=SURFACE_STYLE_USAGE(.BOTH.,#1432);
#1361=SURFACE_STYLE_USAGE(.BOTH.,#1433);
#1362=SURFACE_STYLE_USAGE(.BOTH.,#1434);
#1363=SURFACE_STYLE_USAGE(.BOTH.,#1435);
#1364=SURFACE_STYLE_USAGE(.BOTH.,#1436);
#1365=SURFACE_STYLE_USAGE(.BOTH.,#1437);
#1366=SURFACE_STYLE_USAGE(.BOTH.,#1438);
#1367=SURFACE_STYLE_USAGE(.BOTH.,#1439);
#1368=SURFACE_STYLE_USAGE(.BOTH.,#1440);
#1369=SURFACE_STYLE_USAGE(.BOTH.,#1441);
#1370=SURFACE_STYLE_USAGE(.BOTH.,#1442);
#1371=SURFACE_STYLE_USAGE(.BOTH.,#1443);
#1372=SURFACE_STYLE_USAGE(.BOTH.,#1444);
#1373=SURFACE_STYLE_USAGE(.BOTH.,#1445);
#1374=SURFACE_STYLE_USAGE(.BOTH.,#1446);
#1375=SURFACE_STYLE_USAGE(.BOTH.,#1447);
#1376=SURFACE_SIDE_STYLE('',(#1448));
#1377=SURFACE_SIDE_STYLE('',(#1449));
#1378=SURFACE_SIDE_STYLE('',(#1450));
#1379=SURFACE_SIDE_STYLE('',(#1451));
#1380=SURFACE_SIDE_STYLE('',(#1452));
#1381=SURFACE_SIDE_STYLE('',(#1453));
#1382=SURFACE_SIDE_STYLE('',(#1454));
#1383=SURFACE_SIDE_STYLE('',(#1455));
#1384=SURFACE_SIDE_STYLE('',(#1456));
#1385=SURFACE_SIDE_STYLE('',(#1457));
#1386=SURFACE_SIDE_STYLE('',(#1458));
#1387=SURFACE_SIDE_STYLE('',(#1459));
#1388=SURFACE_SIDE_STYLE('',(#1460));
#1389=SURFACE_SIDE_STYLE('',(#1461));
#1390=SURFACE_SIDE_STYLE('',(#1462));
#1391=SURFACE_SIDE_STYLE('',(#1463));
#1392=SURFACE_SIDE_STYLE('',(#1464));
#1393=SURFACE_SIDE_STYLE('',(#1465));
#1394=SURFACE_SIDE_STYLE('',(#1466));
#1395=SURFACE_SIDE_STYLE('',(#1467));
#1396=SURFACE_SIDE_STYLE('',(#1468));
#1397=SURFACE_SIDE_STYLE('',(#1469));
#1398=SURFACE_SIDE_STYLE('',(#1470));
#1399=SURFACE_SIDE_STYLE('',(#1471));
#1400=SURFACE_SIDE_STYLE('',(#1472));
#1401=SURFACE_SIDE_STYLE('',(#1473));
#1402=SURFACE_SIDE_STYLE('',(#1474));
#1403=SURFACE_SIDE_STYLE('',(#1475));
#1404=SURFACE_SIDE_STYLE('',(#1476));
#1405=SURFACE_SIDE_STYLE('',(#1477));
#1406=SURFACE_SIDE_STYLE('',(#1478));
#1407=SURFACE_SIDE_STYLE('',(#1479));
#1408=SURFACE_SIDE_STYLE('',(#1480));
#1409=SURFACE_SIDE_STYLE('',(#1481));
#1410=SURFACE_SIDE_STYLE('',(#1482));
#1411=SURFACE_SIDE_STYLE('',(#1483));
#1412=SURFACE_SIDE_STYLE('',(#1484));
#1413=SURFACE_SIDE_STYLE('',(#1485));
#1414=SURFACE_SIDE_STYLE('',(#1486));
#1415=SURFACE_SIDE_STYLE('',(#1487));
#1416=SURFACE_SIDE_STYLE('',(#1488));
#1417=SURFACE_SIDE_STYLE('',(#1489));
#1418=SURFACE_SIDE_STYLE('',(#1490));
#1419=SURFACE_SIDE_STYLE('',(#1491));
#1420=SURFACE_SIDE_STYLE('',(#1492));
#1421=SURFACE_SIDE_STYLE('',(#1493));
#1422=SURFACE_SIDE_STYLE('',(#1494));
#1423=SURFACE_SIDE_STYLE('',(#1495));
#1424=SURFACE_SIDE_STYLE('',(#1496));
#1425=SURFACE_SIDE_STYLE('',(#1497));
#1426=SURFACE_SIDE_STYLE('',(#1498));
#1427=SURFACE_SIDE_STYLE('',(#1499));
#1428=SURFACE_SIDE_STYLE('',(#1500));
#1429=SURFACE_SIDE_STYLE('',(#1501));
#1430=SURFACE_SIDE_STYLE('',(#1502));
#1431=SURFACE_SIDE_STYLE('',(#1503));
#1432=SURFACE_SIDE_STYLE('',(#1504));
#1433=SURFACE_SIDE_STYLE('',(#1505));
#1434=SURFACE_SIDE_STYLE('',(#1506));
#1435=SURFACE_SIDE_STYLE('',(#1507));
#1436=SURFACE_SIDE_STYLE('',(#1508));
#1437=SURFACE_SIDE_STYLE('',(#1509));
#1438=SURFACE_SIDE_STYLE('',(#1510));
#1439=SURFACE_SIDE_STYLE('',(#1511));
#1440=SURFACE_SIDE_STYLE('',(#1512));
#1441=SURFACE_SIDE_STYLE('',(#1513));
#1442=SURFACE_SIDE_STYLE('',(#1514));
#1443=SURFACE_SIDE_STYLE('',(#1515));
#1444=SURFACE_SIDE_STYLE('',(#1516));
#1445=SURFACE_SIDE_STYLE('',(#1517));
#1446=SURFACE_SIDE_STYLE('',(#1518));
#1447=SURFACE_SIDE_STYLE('',(#1519));
#1448=SURFACE_STYLE_FILL_AREA(#1520);
#1449=SURFACE_STYLE_FILL_AREA(#1521);
#1450=SURFACE_STYLE_FILL_AREA(#1522);
#1451=SURFACE_STYLE_FILL_AREA(#1523);
#1452=SURFACE_STYLE_FILL_AREA(#1524);
#1453=SURFACE_STYLE_FILL_AREA(#1525);
#1454=SURFACE_STYLE_FILL_AREA(#1526);
#1455=SURFACE_STYLE_FILL_AREA(#1527);
#1456=SURFACE_STYLE_FILL_AREA(#1528);
#1457=SURFACE_STYLE_FILL_AREA(#1529);
#1458=SURFACE_STYLE_FILL_AREA(#1530);
#1459=SURFACE_STYLE_FILL_AREA(#1531);
#1460=SURFACE_STYLE_FILL_AREA(#1532);
#1461=SURFACE_STYLE_FILL_AREA(#1533);
#1462=SURFACE_STYLE_FILL_AREA(#1534);
#1463=SURFACE_STYLE_FILL_AREA(#1535);
#1464=SURFACE_STYLE_FILL_AREA(#1536);
#1465=SURFACE_STYLE_FILL_AREA(#1537);
#1466=SURFACE_STYLE_FILL_AREA(#1538);
#1467=SURFACE_STYLE_FILL_AREA(#1539);
#1468=SURFACE_STYLE_FILL_AREA(#1540);
#1469=SURFACE_STYLE_FILL_AREA(#1541);
#1470=SURFACE_STYLE_FILL_AREA(#1542);
#1471=SURFACE_STYLE_FILL_AREA(#1543);
#1472=SURFACE_STYLE_FILL_AREA(#1544);
#1473=SURFACE_STYLE_FILL_AREA(#1545);
#1474=SURFACE_STYLE_FILL_AREA(#1546);
#1475=SURFACE_STYLE_FILL_AREA(#1547);
#1476=SURFACE_STYLE_FILL_AREA(#1548);
#1477=SURFACE_STYLE_FILL_AREA(#1549);
#1478=SURFACE_STYLE_FILL_AREA(#1550);
#1479=SURFACE_STYLE_FILL_AREA(#1551);
#1480=SURFACE_STYLE_FILL_AREA(#1552);
#1481=SURFACE_STYLE_FILL_AREA(#1553);
#1482=SURFACE_STYLE_FILL_AREA(#1554);
#1483=SURFACE_STYLE_FILL_AREA(#1555);
#1484=SURFACE_STYLE_FILL_AREA(#1556);
#1485=SURFACE_STYLE_FILL_AREA(#1557);
#1486=SURFACE_STYLE_FILL_AREA(#1558);
#1487=SURFACE_STYLE_FILL_AREA(#1559);
#1488=SURFACE_STYLE_FILL_AREA(#1560);
#1489=SURFACE_STYLE_FILL_AREA(#1561);
#1490=SURFACE_STYLE_FILL_AREA(#1562);
#1491=SURFACE_STYLE_FILL_AREA(#1563);
#1492=SURFACE_STYLE_FILL_AREA(#1564);
#1493=SURFACE_STYLE_FILL_AREA(#1565);
#1494=SURFACE_STYLE_FILL_AREA(#1566);
#1495=SURFACE_STYLE_FILL_AREA(#1567);
#1496=SURFACE_STYLE_FILL_AREA(#1568);
#1497=SURFACE_STYLE_FILL_AREA(#1569);
#1498=SURFACE_STYLE_FILL_AREA(#1570);
#1499=SURFACE_STYLE_FILL_AREA(#1571);
#1500=SURFACE_STYLE_FILL_AREA(#1572);
#1501=SURFACE_STYLE_FILL_AREA(#1573);
#1502=SURFACE_STYLE_FILL_AREA(#1574);
#1503=SURFACE_STYLE_FILL_AREA(#1575);
#1504=SURFACE_STYLE_FILL_AREA(#1576);
#1505=SURFACE_STYLE_FILL_AREA(#1577);
#1506=SURFACE_STYLE_FILL_AREA(#1578);
#1507=SURFACE_STYLE_FILL_AREA(#1579);
#1508=SURFACE_STYLE_FILL_AREA(#1580);
#1509=SURFACE_STYLE_FILL_AREA(#1581);
#1510=SURFACE_STYLE_FILL_AREA(#1582);
#1511=SURFACE_STYLE_FILL_AREA(#1583);
#1512=SURFACE_STYLE_FILL_AREA(#1584);
#1513=SURFACE_STYLE_FILL_AREA(#1585);
#1514=SURFACE_STYLE_FILL_AREA(#1586);
#1515=SURFACE_STYLE_FILL_AREA(#1587);
#1516=SURFACE_STYLE_FILL_AREA(#1588);
#1517=SURFACE_STYLE_FILL_AREA(#1589);
#1518=SURFACE_STYLE_FILL_AREA(#1590);
#1519=SURFACE_STYLE_FILL_AREA(#1591);
#1520=FILL_AREA_STYLE('',(#1592));
#1521=FILL_AREA_STYLE('',(#1593));
#1522=FILL_AREA_STYLE('',(#1594));
#1523=FILL_AREA_STYLE('',(#1595));
#1524=FILL_AREA_STYLE('',(#1596));
#1525=FILL_AREA_STYLE('',(#1597));
#1526=FILL_AREA_STYLE('',(#1598));
#1527=FILL_AREA_STYLE('',(#1599));
#1528=FILL_AREA_STYLE('',(#1600));
#1529=FILL_AREA_STYLE('',(#1601));
#1530=FILL_AREA_STYLE('',(#1602));
#1531=FILL_AREA_STYLE('',(#1603));
#1532=FILL_AREA_STYLE('',(#1604));
#1533=FILL_AREA_STYLE('',(#1605));
#1534=FILL_AREA_STYLE('',(#1606));
#1535=FILL_AREA_STYLE('',(#1607));
#1536=FILL_AREA_STYLE('',(#1608));
#1537=FILL_AREA_STYLE('',(#1609));
#1538=FILL_AREA_STYLE('',(#1610));
#1539=FILL_AREA_STYLE('',(#1611));
#1540=FILL_AREA_STYLE('',(#1612));
#1541=FILL_AREA_STYLE('',(#1613));
#1542=FILL_AREA_STYLE('',(#1614));
#1543=FILL_AREA_STYLE('',(#1615));
#1544=FILL_AREA_STYLE('',(#1616));
#1545=FILL_AREA_STYLE('',(#1617));
#1546=FILL_AREA_STYLE('',(#1618));
#1547=FILL_AREA_STYLE('',(#1619));
#1548=FILL_AREA_STYLE('',(#1620));
#1549=FILL_AREA_STYLE('',(#1621));
#1550=FILL_AREA_STYLE('',(#1622));
#1551=FILL_AREA_STYLE('',(#1623));
#1552=FILL_AREA_STYLE('',(#1624));
#1553=FILL_AREA_STYLE('',(#1625));
#1554=FILL_AREA_STYLE('',(#1626));
#1555=FILL_AREA_STYLE('',(#1627));
#1556=FILL_AREA_STYLE('',(#1628));
#1557=FILL_AREA_STYLE('',(#1629));
#1558=FILL_AREA_STYLE('',(#1630));
#1559=FILL_AREA_STYLE('',(#1631));
#1560=FILL_AREA_STYLE('',(#1632));
#1561=FILL_AREA_STYLE('',(#1633));
#1562=FILL_AREA_STYLE('',(#1634));
#1563=FILL_AREA_STYLE('',(#1635));
#1564=FILL_AREA_STYLE('',(#1636));
#1565=FILL_AREA_STYLE('',(#1637));
#1566=FILL_AREA_STYLE('',(#1638));
#1567=FILL_AREA_STYLE('',(#1639));
#1568=FILL_AREA_STYLE('',(#1640));
#1569=FILL_AREA_STYLE('',(#1641));
#1570=FILL_AREA_STYLE('',(#1642));
#1571=FILL_AREA_STYLE('',(#1643));
#1572=FILL_AREA_STYLE('',(#1644));
#1573=FILL_AREA_STYLE('',(#1645));
#1574=FILL_AREA_STYLE('',(#1646));
#1575=FILL_AREA_STYLE('',(#1647));
#1576=FILL_AREA_STYLE('',(#1648));
#1577=FILL_AREA_STYLE('',(#1649));
#1578=FILL_AREA_STYLE('',(#1650));
#1579=FILL_AREA_STYLE('',(#1651));
#1580=FILL_AREA_STYLE('',(#1652));
#1581=FILL_AREA_STYLE('',(#1653));
#1582=FILL_AREA_STYLE('',(#1654));
#1583=FILL_AREA_STYLE('',(#1655));
#1584=FILL_AREA_STYLE('',(#1656));
#1585=FILL_AREA_STYLE('',(#1657));
#1586=FILL_AREA_STYLE('',(#1658));
#1587=FILL_AREA_STYLE('',(#1659));
#1588=FILL_AREA_STYLE('',(#1660));
#1589=FILL_AREA_STYLE('',(#1661));
#1590=FILL_AREA_STYLE('',(#1662));
#1591=FILL_AREA_STYLE('',(#1663));
#1592=FILL_AREA_STYLE_COLOUR('',#1664);
#1593=FILL_AREA_STYLE_COLOUR('',#1665);
#1594=FILL_AREA_STYLE_COLOUR('',#1664);
#1595=FILL_AREA_STYLE_COLOUR('',#1665);
#1596=FILL_AREA_STYLE_COLOUR('',#1666);
#1597=FILL_AREA_STYLE_COLOUR('',#1667);
#1598=FILL_AREA_STYLE_COLOUR('',#1667);
#1599=FILL_AREA_STYLE_COLOUR('',#1667);
#1600=FILL_AREA_STYLE_COLOUR('',#1667);
#1601=FILL_AREA_STYLE_COLOUR('',#1667);
#1602=FILL_AREA_STYLE_COLOUR('',#1666);
#1603=FILL_AREA_STYLE_COLOUR('',#1667);
#1604=FILL_AREA_STYLE_COLOUR('',#1667);
#1605=FILL_AREA_STYLE_COLOUR('',#1667);
#1606=FILL_AREA_STYLE_COLOUR('',#1667);
#1607=FILL_AREA_STYLE_COLOUR('',#1667);
#1608=FILL_AREA_STYLE_COLOUR('',#1667);
#1609=FILL_AREA_STYLE_COLOUR('',#1667);
#1610=FILL_AREA_STYLE_COLOUR('',#1667);
#1611=FILL_AREA_STYLE_COLOUR('',#1667);
#1612=FILL_AREA_STYLE_COLOUR('',#1667);
#1613=FILL_AREA_STYLE_COLOUR('',#1666);
#1614=FILL_AREA_STYLE_COLOUR('',#1666);
#1615=FILL_AREA_STYLE_COLOUR('',#1666);
#1616=FILL_AREA_STYLE_COLOUR('',#1666);
#1617=FILL_AREA_STYLE_COLOUR('',#1665);
#1618=FILL_AREA_STYLE_COLOUR('',#1666);
#1619=FILL_AREA_STYLE_COLOUR('',#1664);
#1620=FILL_AREA_STYLE_COLOUR('',#1666);
#1621=FILL_AREA_STYLE_COLOUR('',#1666);
#1622=FILL_AREA_STYLE_COLOUR('',#1666);
#1623=FILL_AREA_STYLE_COLOUR('',#1664);
#1624=FILL_AREA_STYLE_COLOUR('',#1664);
#1625=FILL_AREA_STYLE_COLOUR('',#1664);
#1626=FILL_AREA_STYLE_COLOUR('',#1665);
#1627=FILL_AREA_STYLE_COLOUR('',#1665);
#1628=FILL_AREA_STYLE_COLOUR('',#1665);
#1629=FILL_AREA_STYLE_COLOUR('',#1666);
#1630=FILL_AREA_STYLE_COLOUR('',#1666);
#1631=FILL_AREA_STYLE_COLOUR('',#1667);
#1632=FILL_AREA_STYLE_COLOUR('',#1667);
#1633=FILL_AREA_STYLE_COLOUR('',#1667);
#1634=FILL_AREA_STYLE_COLOUR('',#1667);
#1635=FILL_AREA_STYLE_COLOUR('',#1667);
#1636=FILL_AREA_STYLE_COLOUR('',#1666);
#1637=FILL_AREA_STYLE_COLOUR('',#1666);
#1638=FILL_AREA_STYLE_COLOUR('',#1666);
#1639=FILL_AREA_STYLE_COLOUR('',#1666);
#1640=FILL_AREA_STYLE_COLOUR('',#1666);
#1641=FILL_AREA_STYLE_COLOUR('',#1666);
#1642=FILL_AREA_STYLE_COLOUR('',#1666);
#1643=FILL_AREA_STYLE_COLOUR('',#1666);
#1644=FILL_AREA_STYLE_COLOUR('',#1666);
#1645=FILL_AREA_STYLE_COLOUR('',#1666);
#1646=FILL_AREA_STYLE_COLOUR('',#1666);
#1647=FILL_AREA_STYLE_COLOUR('',#1666);
#1648=FILL_AREA_STYLE_COLOUR('',#1666);
#1649=FILL_AREA_STYLE_COLOUR('',#1666);
#1650=FILL_AREA_STYLE_COLOUR('',#1666);
#1651=FILL_AREA_STYLE_COLOUR('',#1666);
#1652=FILL_AREA_STYLE_COLOUR('',#1666);
#1653=FILL_AREA_STYLE_COLOUR('',#1666);
#1654=FILL_AREA_STYLE_COLOUR('',#1666);
#1655=FILL_AREA_STYLE_COLOUR('',#1666);
#1656=FILL_AREA_STYLE_COLOUR('',#1666);
#1657=FILL_AREA_STYLE_COLOUR('',#1666);
#1658=FILL_AREA_STYLE_COLOUR('',#1666);
#1659=FILL_AREA_STYLE_COLOUR('',#1666);
#1660=FILL_AREA_STYLE_COLOUR('',#1665);
#1661=FILL_AREA_STYLE_COLOUR('',#1666);
#1662=FILL_AREA_STYLE_COLOUR('',#1664);
#1663=FILL_AREA_STYLE_COLOUR('',#1666);
#1664=COLOUR_RGB('',0.800000011920929,0.,0.);
#1665=COLOUR_RGB('',0.800000011920929,0.760330617427826,0.);
#1666=COLOUR_RGB('',0.200000002980232,0.200000002980232,0.200000002980232);
#1667=COLOUR_RGB('',0.699999988079071,0.699999988079071,0.699999988079071);
#1668=ADVANCED_FACE('',(#1008),#1096,.F.);
#1669=ADVANCED_FACE('',(#1009),#1097,.F.);
#1670=ADVANCED_FACE('',(#1010,#1011),#1098,.T.);
#1671=ADVANCED_FACE('',(#1012,#1013),#1099,.T.);
#1672=ADVANCED_FACE('',(#1014,#1015,#1016),#1100,.F.);
#1673=ADVANCED_FACE('',(#1017),#1101,.F.);
#1674=ADVANCED_FACE('',(#1018),#1102,.F.);
#1675=ADVANCED_FACE('',(#1019),#1103,.T.);
#1676=ADVANCED_FACE('',(#1020),#1104,.F.);
#1677=ADVANCED_FACE('',(#1021),#1105,.F.);
#1678=ADVANCED_FACE('',(#1022,#1023,#1024,#1025,#1026),#1106,.F.);
#1679=ADVANCED_FACE('',(#1027),#1107,.F.);
#1680=ADVANCED_FACE('',(#1028),#1108,.T.);
#1681=ADVANCED_FACE('',(#1029),#1109,.F.);
#1682=ADVANCED_FACE('',(#1030),#1110,.F.);
#1683=ADVANCED_FACE('',(#1031),#1111,.F.);
#1684=ADVANCED_FACE('',(#1032),#1112,.F.);
#1685=ADVANCED_FACE('',(#1033),#1113,.F.);
#1686=ADVANCED_FACE('',(#1034),#1114,.F.);
#1687=ADVANCED_FACE('',(#1035),#1115,.F.);
#1688=ADVANCED_FACE('',(#1036),#1116,.T.);
#1689=ADVANCED_FACE('',(#1037),#1117,.F.);
#1690=ADVANCED_FACE('',(#1038),#1118,.T.);
#1691=ADVANCED_FACE('',(#1039),#1119,.T.);
#1692=ADVANCED_FACE('',(#1040),#1120,.F.);
#1693=ADVANCED_FACE('',(#1041),#1121,.F.);
#1694=ADVANCED_FACE('',(#1042),#1122,.F.);
#1695=ADVANCED_FACE('',(#1043),#1123,.F.);
#1696=ADVANCED_FACE('',(#1044),#1124,.F.);
#1697=ADVANCED_FACE('',(#1045),#1125,.T.);
#1698=ADVANCED_FACE('',(#1046),#1126,.F.);
#1699=ADVANCED_FACE('',(#1047),#1127,.T.);
#1700=ADVANCED_FACE('',(#1048,#1049),#26,.T.);
#1701=ADVANCED_FACE('',(#1050,#1051),#20,.T.);
#1702=ADVANCED_FACE('',(#1052,#1053),#21,.T.);
#1703=ADVANCED_FACE('',(#1054,#1055),#27,.T.);
#1704=ADVANCED_FACE('',(#1056),#1128,.F.);
#1705=ADVANCED_FACE('',(#1057),#1129,.F.);
#1706=ADVANCED_FACE('',(#1058),#1130,.F.);
#1707=ADVANCED_FACE('',(#1059),#1131,.F.);
#1708=ADVANCED_FACE('',(#1060),#1132,.F.);
#1709=ADVANCED_FACE('',(#1061),#1133,.F.);
#1710=ADVANCED_FACE('',(#1062),#1134,.F.);
#1711=ADVANCED_FACE('',(#1063),#1135,.T.);
#1712=ADVANCED_FACE('',(#1064,#1065),#1136,.F.);
#1713=ADVANCED_FACE('',(#1066,#1067),#22,.F.);
#1714=ADVANCED_FACE('',(#1068,#1069),#1137,.F.);
#1715=ADVANCED_FACE('',(#1070,#1071),#23,.F.);
#1716=ADVANCED_FACE('',(#1072),#1138,.T.);
#1717=ADVANCED_FACE('',(#1073),#1139,.T.);
#1718=ADVANCED_FACE('',(#1074),#1140,.T.);
#1719=ADVANCED_FACE('',(#1075),#1141,.T.);
#1720=ADVANCED_FACE('',(#1076),#1142,.T.);
#1721=ADVANCED_FACE('',(#1077),#1143,.F.);
#1722=ADVANCED_FACE('',(#1078),#1144,.F.);
#1723=ADVANCED_FACE('',(#1079),#1145,.F.);
#1724=ADVANCED_FACE('',(#1080),#1146,.F.);
#1725=ADVANCED_FACE('',(#1081),#1147,.T.);
#1726=ADVANCED_FACE('',(#1082),#1148,.T.);
#1727=ADVANCED_FACE('',(#1083),#1149,.T.);
#1728=ADVANCED_FACE('',(#1084),#1150,.T.);
#1729=ADVANCED_FACE('',(#1085),#1151,.T.);
#1730=ADVANCED_FACE('',(#1086),#1152,.F.);
#1731=ADVANCED_FACE('',(#1087),#1153,.F.);
#1732=ADVANCED_FACE('',(#1088),#1154,.F.);
#1733=ADVANCED_FACE('',(#1089),#1155,.F.);
#1734=ADVANCED_FACE('',(#1090),#1156,.T.);
#1735=ADVANCED_FACE('',(#1091),#1157,.T.);
#1736=ADVANCED_FACE('',(#1092),#24,.T.);
#1737=ADVANCED_FACE('',(#1093),#1158,.F.);
#1738=ADVANCED_FACE('',(#1094),#25,.T.);
#1739=ADVANCED_FACE('',(#1095),#1159,.F.);
#1740=CLOSED_SHELL('',(#1668,#1669,#1670,#1671,#1672,#1673,#1674,#1675,
#1676,#1677,#1678,#1679,#1680,#1681,#1682,#1683,#1684,#1685,#1686,#1687,
#1688,#1689,#1690,#1691,#1692,#1693,#1694,#1695,#1696,#1697,#1698,#1699,
#1700,#1701,#1702,#1703,#1704,#1705,#1706,#1707,#1708,#1709,#1710,#1711,
#1712,#1713,#1714,#1715,#1716,#1717,#1718,#1719,#1720,#1721,#1722,#1723,
#1724,#1725,#1726,#1727,#1728,#1729,#1730,#1731,#1732,#1733,#1734,#1735,
#1736,#1737,#1738,#1739));
#1741=MANIFOLD_SOLID_BREP('',#1740);
#1742=SHAPE_DEFINITION_REPRESENTATION(#2496,#1743);
#1743=SHAPE_REPRESENTATION('5710113100F',(#1744),#2491);
#1744=AXIS2_PLACEMENT_3D('',#2151,#1831,#1832);
#1745=AXIS2_PLACEMENT_3D('',#2152,#1833,#1834);
#1746=AXIS2_PLACEMENT_3D('',#2161,#1839,#1840);
#1747=AXIS2_PLACEMENT_3D('',#2170,#1845,#1846);
#1748=AXIS2_PLACEMENT_3D('',#2171,#1847,#1848);
#1749=AXIS2_PLACEMENT_3D('',#2173,#1849,#1850);
#1750=AXIS2_PLACEMENT_3D('',#2178,#1853,#1854);
#1751=AXIS2_PLACEMENT_3D('',#2179,#1855,#1856);
#1752=AXIS2_PLACEMENT_3D('',#2184,#1858,#1859);
#1753=AXIS2_PLACEMENT_3D('',#2186,#1861,#1862);
#1754=AXIS2_PLACEMENT_3D('',#2187,#1863,#1864);
#1755=AXIS2_PLACEMENT_3D('',#2189,#1865,#1866);
#1756=AXIS2_PLACEMENT_3D('',#2217,#1881,#1882);
#1757=AXIS2_PLACEMENT_3D('',#2226,#1887,#1888);
#1758=AXIS2_PLACEMENT_3D('',#2235,#1893,#1894);
#1759=AXIS2_PLACEMENT_3D('',#2238,#1897,#1898);
#1760=AXIS2_PLACEMENT_3D('',#2240,#1900,#1901);
#1761=AXIS2_PLACEMENT_3D('',#2242,#1903,#1904);
#1762=AXIS2_PLACEMENT_3D('',#2275,#1921,#1922);
#1763=AXIS2_PLACEMENT_3D('',#2281,#1926,#1927);
#1764=AXIS2_PLACEMENT_3D('',#2287,#1931,#1932);
#1765=AXIS2_PLACEMENT_3D('',#2289,#1934,#1935);
#1766=AXIS2_PLACEMENT_3D('',#2291,#1937,#1938);
#1767=AXIS2_PLACEMENT_3D('',#2292,#1939,#1940);
#1768=AXIS2_PLACEMENT_3D('',#2298,#1944,#1945);
#1769=AXIS2_PLACEMENT_3D('',#2302,#1948,#1949);
#1770=AXIS2_PLACEMENT_3D('',#2306,#1952,#1953);
#1771=AXIS2_PLACEMENT_3D('',#2308,#1955,#1956);
#1772=AXIS2_PLACEMENT_3D('',#2309,#1957,#1958);
#1773=AXIS2_PLACEMENT_3D('',#2318,#1963,#1964);
#1774=AXIS2_PLACEMENT_3D('',#2322,#1967,#1968);
#1775=AXIS2_PLACEMENT_3D('',#2328,#1972,#1973);
#1776=AXIS2_PLACEMENT_3D('',#2339,#1981,#1982);
#1777=AXIS2_PLACEMENT_3D('',#2341,#1984,#1985);
#1778=AXIS2_PLACEMENT_3D('',#2347,#1989,#1990);
#1779=AXIS2_PLACEMENT_3D('',#2349,#1992,#1993);
#1780=AXIS2_PLACEMENT_3D('',#2351,#1995,#1996);
#1781=AXIS2_PLACEMENT_3D('',#2354,#1999,#2000);
#1782=AXIS2_PLACEMENT_3D('',#2357,#2003,#2004);
#1783=AXIS2_PLACEMENT_3D('',#2358,#2005,#2006);
#1784=AXIS2_PLACEMENT_3D('',#2360,#2007,#2008);
#1785=AXIS2_PLACEMENT_3D('',#2361,#2009,#2010);
#1786=AXIS2_PLACEMENT_3D('',#2363,#2011,#2012);
#1787=AXIS2_PLACEMENT_3D('',#2364,#2013,#2014);
#1788=AXIS2_PLACEMENT_3D('',#2365,#2015,#2016);
#1789=AXIS2_PLACEMENT_3D('',#2367,#2017,#2018);
#1790=AXIS2_PLACEMENT_3D('',#2368,#2019,#2020);
#1791=AXIS2_PLACEMENT_3D('',#2370,#2021,#2022);
#1792=AXIS2_PLACEMENT_3D('',#2371,#2023,#2024);
#1793=AXIS2_PLACEMENT_3D('',#2372,#2025,#2026);
#1794=AXIS2_PLACEMENT_3D('',#2373,#2027,#2028);
#1795=AXIS2_PLACEMENT_3D('',#2379,#2032,#2033);
#1796=AXIS2_PLACEMENT_3D('',#2383,#2036,#2037);
#1797=AXIS2_PLACEMENT_3D('',#2387,#2040,#2041);
#1798=AXIS2_PLACEMENT_3D('',#2389,#2043,#2044);
#1799=AXIS2_PLACEMENT_3D('',#2390,#2045,#2046);
#1800=AXIS2_PLACEMENT_3D('',#2391,#2047,#2048);
#1801=AXIS2_PLACEMENT_3D('',#2401,#2053,#2054);
#1802=AXIS2_PLACEMENT_3D('',#2402,#2055,#2056);
#1803=AXIS2_PLACEMENT_3D('',#2403,#2057,#2058);
#1804=AXIS2_PLACEMENT_3D('',#2413,#2063,#2064);
#1805=AXIS2_PLACEMENT_3D('',#2414,#2065,#2066);
#1806=AXIS2_PLACEMENT_3D('',#2423,#2071,#2072);
#1807=AXIS2_PLACEMENT_3D('',#2429,#2076,#2077);
#1808=AXIS2_PLACEMENT_3D('',#2433,#2080,#2081);
#1809=AXIS2_PLACEMENT_3D('',#2437,#2084,#2085);
#1810=AXIS2_PLACEMENT_3D('',#2439,#2087,#2088);
#1811=AXIS2_PLACEMENT_3D('',#2442,#2091,#2092);
#1812=AXIS2_PLACEMENT_3D('',#2444,#2094,#2095);
#1813=AXIS2_PLACEMENT_3D('',#2446,#2097,#2098);
#1814=AXIS2_PLACEMENT_3D('',#2447,#2099,#2100);
#1815=AXIS2_PLACEMENT_3D('',#2456,#2105,#2106);
#1816=AXIS2_PLACEMENT_3D('',#2462,#2110,#2111);
#1817=AXIS2_PLACEMENT_3D('',#2466,#2114,#2115);
#1818=AXIS2_PLACEMENT_3D('',#2470,#2118,#2119);
#1819=AXIS2_PLACEMENT_3D('',#2472,#2121,#2122);
#1820=AXIS2_PLACEMENT_3D('',#2475,#2125,#2126);
#1821=AXIS2_PLACEMENT_3D('',#2477,#2128,#2129);
#1822=AXIS2_PLACEMENT_3D('',#2479,#2131,#2132);
#1823=AXIS2_PLACEMENT_3D('',#2480,#2133,#2134);
#1824=AXIS2_PLACEMENT_3D('',#2481,#2135,#2136);
#1825=AXIS2_PLACEMENT_3D('',#2483,#2138,#2139);
#1826=AXIS2_PLACEMENT_3D('',#2484,#2140,#2141);
#1827=AXIS2_PLACEMENT_3D('',#2485,#2142,#2143);
#1828=AXIS2_PLACEMENT_3D('',#2486,#2144,#2145);
#1829=AXIS2_PLACEMENT_3D('',#2488,#2147,#2148);
#1830=AXIS2_PLACEMENT_3D('',#2489,#2149,#2150);
#1831=DIRECTION('',(0.,0.,1.));
#1832=DIRECTION('',(1.,0.,0.));
#1833=DIRECTION('',(1.,0.,0.));
#1834=DIRECTION('',(0.,0.,-1.));
#1835=DIRECTION('',(0.,-1.,0.));
#1836=DIRECTION('',(0.,0.,-1.));
#1837=DIRECTION('',(0.,-1.,0.));
#1838=DIRECTION('',(0.,0.,-1.));
#1839=DIRECTION('',(1.,0.,0.));
#1840=DIRECTION('',(0.,0.,-1.));
#1841=DIRECTION('',(0.,-1.,0.));
#1842=DIRECTION('',(0.,0.,-1.));
#1843=DIRECTION('',(0.,-1.,0.));
#1844=DIRECTION('',(0.,0.,-1.));
#1845=DIRECTION('',(0.,-1.,0.));
#1846=DIRECTION('',(0.,0.,-1.));
#1847=DIRECTION('',(0.,-1.,0.));
#1848=DIRECTION('',(0.,0.,-1.));
#1849=DIRECTION('',(0.,1.,0.));
#1850=DIRECTION('',(1.,0.,0.));
#1851=DIRECTION('',(1.,0.,0.));
#1852=DIRECTION('',(0.,0.,1.));
#1853=DIRECTION('',(0.,-1.,0.));
#1854=DIRECTION('',(0.,0.,-1.));
#1855=DIRECTION('',(-6.12303176911189E-17,-1.,0.));
#1856=DIRECTION('',(1.,-6.12303176911189E-17,0.));
#1857=DIRECTION('',(0.,0.,1.));
#1858=DIRECTION('',(0.,-1.,0.));
#1859=DIRECTION('',(1.,0.,0.));
#1860=DIRECTION('',(1.,0.,0.));
#1861=DIRECTION('',(-1.,0.,0.));
#1862=DIRECTION('',(0.,0.,1.));
#1863=DIRECTION('',(-1.,0.,0.));
#1864=DIRECTION('',(0.,1.,0.));
#1865=DIRECTION('',(-1.,0.,0.));
#1866=DIRECTION('',(0.,1.,0.));
#1867=DIRECTION('',(0.,0.,-1.));
#1868=DIRECTION('',(0.,0.,-1.));
#1869=DIRECTION('',(0.,-1.,0.));
#1870=DIRECTION('',(0.,0.,1.));
#1871=DIRECTION('',(0.,-1.,0.));
#1872=DIRECTION('',(0.,0.,-1.));
#1873=DIRECTION('',(0.,0.,-1.));
#1874=DIRECTION('',(0.,-1.,0.));
#1875=DIRECTION('',(0.,0.,1.));
#1876=DIRECTION('',(0.,1.,0.));
#1877=DIRECTION('',(0.,0.,1.));
#1878=DIRECTION('',(0.,1.,0.));
#1879=DIRECTION('',(0.,0.,1.));
#1880=DIRECTION('',(0.,-1.,-3.16555378827884E-16));
#1881=DIRECTION('',(0.,-1.,0.));
#1882=DIRECTION('',(0.,0.,-1.));
#1883=DIRECTION('',(1.,0.,0.));
#1884=DIRECTION('',(0.,0.,1.));
#1885=DIRECTION('',(1.,0.,0.));
#1886=DIRECTION('',(0.,0.,1.));
#1887=DIRECTION('',(0.,1.,0.));
#1888=DIRECTION('',(0.,0.,1.));
#1889=DIRECTION('',(-1.,0.,0.));
#1890=DIRECTION('',(0.,0.,1.));
#1891=DIRECTION('',(-1.,0.,0.));
#1892=DIRECTION('',(0.,0.,1.));
#1893=DIRECTION('',(0.,0.,-1.));
#1894=DIRECTION('',(-1.,0.,0.));
#1895=DIRECTION('',(0.,-1.,0.));
#1896=DIRECTION('',(0.,1.,0.));
#1897=DIRECTION('',(1.,0.,0.));
#1898=DIRECTION('',(0.,0.,-1.));
#1899=DIRECTION('',(0.,1.,0.));
#1900=DIRECTION('',(-1.,0.,0.));
#1901=DIRECTION('',(0.,0.,1.));
#1902=DIRECTION('',(0.,-1.,0.));
#1903=DIRECTION('',(0.,0.,1.));
#1904=DIRECTION('',(1.,0.,0.));
#1905=DIRECTION('',(1.,0.,0.));
#1906=DIRECTION('',(0.,1.,0.));
#1907=DIRECTION('',(-1.,0.,0.));
#1908=DIRECTION('',(0.,-1.,0.));
#1909=DIRECTION('',(1.,0.,0.));
#1910=DIRECTION('',(0.,1.,0.));
#1911=DIRECTION('',(-1.,0.,0.));
#1912=DIRECTION('',(0.,-1.,0.));
#1913=DIRECTION('',(-1.,0.,0.));
#1914=DIRECTION('',(0.,1.,0.));
#1915=DIRECTION('',(-1.,0.,0.));
#1916=DIRECTION('',(0.,1.,0.));
#1917=DIRECTION('',(1.,0.,0.));
#1918=DIRECTION('',(0.,1.,0.));
#1919=DIRECTION('',(-1.,0.,0.));
#1920=DIRECTION('',(0.,-1.,0.));
#1921=DIRECTION('',(0.,-1.,0.));
#1922=DIRECTION('',(0.,0.,-1.));
#1923=DIRECTION('',(0.,0.,1.));
#1924=DIRECTION('',(1.,0.,0.));
#1925=DIRECTION('',(0.,0.,1.));
#1926=DIRECTION('',(0.,0.,-1.));
#1927=DIRECTION('',(-1.,0.,0.));
#1928=DIRECTION('',(0.,-1.,0.));
#1929=DIRECTION('',(-1.,0.,0.));
#1930=DIRECTION('',(0.,1.,0.));
#1931=DIRECTION('',(-1.,0.,0.));
#1932=DIRECTION('',(0.,0.,1.));
#1933=DIRECTION('',(0.,0.,1.));
#1934=DIRECTION('',(1.,0.,0.));
#1935=DIRECTION('',(0.,0.,-1.));
#1936=DIRECTION('',(0.,0.,1.));
#1937=DIRECTION('',(0.,1.,0.));
#1938=DIRECTION('',(0.,0.,1.));
#1939=DIRECTION('',(0.,-1.,0.));
#1940=DIRECTION('',(0.,0.,-1.));
#1941=DIRECTION('',(0.,0.,1.));
#1942=DIRECTION('',(1.,0.,0.));
#1943=DIRECTION('',(0.,0.,1.));
#1944=DIRECTION('',(-1.,0.,0.));
#1945=DIRECTION('',(0.,0.,1.));
#1946=DIRECTION('',(0.,0.,1.));
#1947=DIRECTION('',(0.,-1.,0.));
#1948=DIRECTION('',(0.,1.,0.));
#1949=DIRECTION('',(0.,0.,1.));
#1950=DIRECTION('',(0.,0.,1.));
#1951=DIRECTION('',(-1.,0.,0.));
#1952=DIRECTION('',(1.,0.,0.));
#1953=DIRECTION('',(0.,0.,-1.));
#1954=DIRECTION('',(0.,1.,0.));
#1955=DIRECTION('',(0.,0.,-1.));
#1956=DIRECTION('',(-1.,0.,0.));
#1957=DIRECTION('',(0.,0.,1.));
#1958=DIRECTION('',(1.,0.,0.));
#1959=DIRECTION('',(0.,1.,0.));
#1960=DIRECTION('',(1.,0.,0.));
#1961=DIRECTION('',(0.,1.,0.));
#1962=DIRECTION('',(1.,0.,0.));
#1963=DIRECTION('',(0.,-1.,0.));
#1964=DIRECTION('',(0.,0.,-1.));
#1965=DIRECTION('',(0.,0.,-1.));
#1966=DIRECTION('',(1.,0.,0.));
#1967=DIRECTION('',(0.,-1.,0.));
#1968=DIRECTION('',(0.,0.,-1.));
#1969=DIRECTION('',(0.,0.,-1.));
#1970=DIRECTION('',(1.,0.,0.));
#1971=DIRECTION('',(-1.,0.,0.));
#1972=DIRECTION('',(1.,0.,0.));
#1973=DIRECTION('',(0.,0.,-1.));
#1974=DIRECTION('',(0.,0.,-1.));
#1975=DIRECTION('',(0.,-1.,-3.16555378827884E-16));
#1976=DIRECTION('',(0.,1.,0.));
#1977=DIRECTION('',(0.,0.,-1.));
#1978=DIRECTION('',(0.,0.,-1.));
#1979=DIRECTION('',(0.,0.,-1.));
#1980=DIRECTION('',(0.,-1.,0.));
#1981=DIRECTION('',(-1.,0.,0.));
#1982=DIRECTION('',(0.,0.,1.));
#1983=DIRECTION('',(0.,-1.,0.));
#1984=DIRECTION('',(0.,0.,1.));
#1985=DIRECTION('',(1.,0.,0.));
#1986=DIRECTION('',(1.,0.,0.));
#1987=DIRECTION('',(0.,1.,0.));
#1988=DIRECTION('',(1.,0.,0.));
#1989=DIRECTION('',(-1.,0.,0.));
#1990=DIRECTION('',(0.,0.,1.));
#1991=DIRECTION('',(0.,-1.,0.));
#1992=DIRECTION('',(0.,0.,-1.));
#1993=DIRECTION('',(-1.,0.,0.));
#1994=DIRECTION('',(-1.,0.,0.));
#1995=DIRECTION('',(0.,-1.,0.));
#1996=DIRECTION('',(0.,0.,-1.));
#1997=DIRECTION('',(2.85316361180396E-16,0.,1.));
#1998=DIRECTION('',(2.85316361180396E-16,0.,-1.));
#1999=DIRECTION('',(0.,-1.,0.));
#2000=DIRECTION('',(0.,0.,-1.));
#2001=DIRECTION('',(2.85316361180396E-16,0.,1.));
#2002=DIRECTION('',(2.85316361180396E-16,0.,-1.));
#2003=DIRECTION('',(-6.12303176911189E-17,-1.,0.));
#2004=DIRECTION('',(1.,-6.12303176911189E-17,0.));
#2005=DIRECTION('',(-6.12303176911189E-17,-1.,0.));
#2006=DIRECTION('',(1.,-6.12303176911189E-17,0.));
#2007=DIRECTION('',(-6.12303176911189E-17,-1.,0.));
#2008=DIRECTION('',(1.,-6.12303176911189E-17,0.));
#2009=DIRECTION('',(-6.12303176911189E-17,-1.,0.));
#2010=DIRECTION('',(1.,-6.12303176911189E-17,0.));
#2011=DIRECTION('',(-6.12303176911189E-17,-1.,0.));
#2012=DIRECTION('',(1.,-6.12303176911189E-17,0.));
#2013=DIRECTION('',(-6.12303176911189E-17,-1.,0.));
#2014=DIRECTION('',(1.,-6.12303176911189E-17,0.));
#2015=DIRECTION('',(6.12303176911189E-17,1.,0.));
#2016=DIRECTION('',(-1.,6.12303176911189E-17,0.));
#2017=DIRECTION('',(6.12303176911189E-17,1.,0.));
#2018=DIRECTION('',(-1.,6.12303176911189E-17,0.));
#2019=DIRECTION('',(6.12303176911189E-17,1.,0.));
#2020=DIRECTION('',(-1.,6.12303176911189E-17,0.));
#2021=DIRECTION('',(6.12303176911189E-17,1.,0.));
#2022=DIRECTION('',(-1.,6.12303176911189E-17,0.));
#2023=DIRECTION('',(1.,0.,-2.85316361180396E-16));
#2024=DIRECTION('',(-2.85316361180396E-16,0.,-1.));
#2025=DIRECTION('',(-1.,0.,-2.85316361180396E-16));
#2026=DIRECTION('',(-2.85316361180396E-16,0.,1.));
#2027=DIRECTION('',(0.,-1.,0.));
#2028=DIRECTION('',(0.,0.,-1.));
#2029=DIRECTION('',(0.,0.,1.));
#2030=DIRECTION('',(1.,0.,0.));
#2031=DIRECTION('',(0.,0.,1.));
#2032=DIRECTION('',(-1.,0.,0.));
#2033=DIRECTION('',(0.,0.,1.));
#2034=DIRECTION('',(0.,0.,1.));
#2035=DIRECTION('',(0.,-1.,0.));
#2036=DIRECTION('',(0.,1.,0.));
#2037=DIRECTION('',(0.,0.,1.));
#2038=DIRECTION('',(0.,0.,1.));
#2039=DIRECTION('',(-1.,0.,0.));
#2040=DIRECTION('',(1.,0.,0.));
#2041=DIRECTION('',(0.,0.,-1.));
#2042=DIRECTION('',(0.,1.,0.));
#2043=DIRECTION('',(0.,0.,-1.));
#2044=DIRECTION('',(-1.,0.,0.));
#2045=DIRECTION('',(-1.,0.,0.));
#2046=DIRECTION('',(0.,0.,1.));
#2047=DIRECTION('',(-1.,0.,0.));
#2048=DIRECTION('',(0.,1.,0.));
#2049=DIRECTION('',(0.,1.,-2.71050543121376E-16));
#2050=DIRECTION('',(0.,-2.71050543121376E-16,-1.));
#2051=DIRECTION('',(0.,-1.,-5.42101086242752E-16));
#2052=DIRECTION('',(0.,0.,1.));
#2053=DIRECTION('',(1.,0.,0.));
#2054=DIRECTION('',(0.,0.,-1.));
#2055=DIRECTION('',(-1.,0.,0.));
#2056=DIRECTION('',(0.,0.,1.));
#2057=DIRECTION('',(-1.,0.,0.));
#2058=DIRECTION('',(0.,1.,0.));
#2059=DIRECTION('',(0.,1.,0.));
#2060=DIRECTION('',(0.,0.,-1.));
#2061=DIRECTION('',(0.,-1.,0.));
#2062=DIRECTION('',(0.,2.16840434497101E-15,1.));
#2063=DIRECTION('',(1.,0.,0.));
#2064=DIRECTION('',(0.,0.,-1.));
#2065=DIRECTION('',(1.,0.,0.));
#2066=DIRECTION('',(0.,0.,-1.));
#2067=DIRECTION('',(0.,1.,0.));
#2068=DIRECTION('',(0.,0.,1.));
#2069=DIRECTION('',(0.,-1.,0.));
#2070=DIRECTION('',(0.,-2.71050543121376E-16,-1.));
#2071=DIRECTION('',(0.707106781186548,-0.707106781186548,1.91661677085422E-16));
#2072=DIRECTION('',(0.,2.71050543121376E-16,1.));
#2073=DIRECTION('',(0.577350269189626,0.577350269189626,-0.577350269189626));
#2074=DIRECTION('',(0.,2.71050543121376E-16,1.));
#2075=DIRECTION('',(0.577350269189626,0.577350269189626,0.577350269189626));
#2076=DIRECTION('',(0.707106781186548,0.,0.707106781186548));
#2077=DIRECTION('',(0.,1.,0.));
#2078=DIRECTION('',(-0.577350269189626,0.577350269189626,0.577350269189626));
#2079=DIRECTION('',(0.,1.,0.));
#2080=DIRECTION('',(0.707106781186548,0.707106781186548,0.));
#2081=DIRECTION('',(0.,0.,-1.));
#2082=DIRECTION('',(0.577350269189626,-0.577350269189626,0.577350269189626));
#2083=DIRECTION('',(0.,0.,-1.));
#2084=DIRECTION('',(0.707106781186548,0.,-0.707106781186548));
#2085=DIRECTION('',(0.,-1.,0.));
#2086=DIRECTION('',(0.,-1.,0.));
#2087=DIRECTION('',(0.,0.,1.));
#2088=DIRECTION('',(1.,0.,0.));
#2089=DIRECTION('',(-1.,0.,0.));
#2090=DIRECTION('',(-1.,0.,0.));
#2091=DIRECTION('',(0.,-1.,0.));
#2092=DIRECTION('',(0.,0.,-1.));
#2093=DIRECTION('',(-1.,0.,0.));
#2094=DIRECTION('',(0.,0.,-1.));
#2095=DIRECTION('',(-1.,0.,0.));
#2096=DIRECTION('',(-1.,0.,0.));
#2097=DIRECTION('',(0.,1.,-2.71050543121376E-16));
#2098=DIRECTION('',(0.,2.71050543121376E-16,1.));
#2099=DIRECTION('',(1.,0.,0.));
#2100=DIRECTION('',(0.,0.,-1.));
#2101=DIRECTION('',(0.,1.,0.));
#2102=DIRECTION('',(0.,0.,1.));
#2103=DIRECTION('',(0.,-1.,0.));
#2104=DIRECTION('',(0.,0.,-1.));
#2105=DIRECTION('',(0.707106781186548,0.707106781186548,0.));
#2106=DIRECTION('',(0.,0.,-1.));
#2107=DIRECTION('',(0.577350269189626,-0.577350269189626,0.577350269189626));
#2108=DIRECTION('',(0.,0.,-1.));
#2109=DIRECTION('',(-0.577350269189626,0.577350269189626,0.577350269189626));
#2110=DIRECTION('',(0.707106781186548,0.,-0.707106781186548));
#2111=DIRECTION('',(0.,-1.,0.));
#2112=DIRECTION('',(0.577350269189626,0.577350269189626,0.577350269189626));
#2113=DIRECTION('',(0.,-1.,0.));
#2114=DIRECTION('',(0.707106781186548,-0.707106781186548,0.));
#2115=DIRECTION('',(0.,0.,1.));
#2116=DIRECTION('',(0.577350269189626,0.577350269189626,-0.577350269189626));
#2117=DIRECTION('',(0.,0.,1.));
#2118=DIRECTION('',(0.707106781186548,0.,0.707106781186548));
#2119=DIRECTION('',(0.,1.,0.));
#2120=DIRECTION('',(0.,1.,0.));
#2121=DIRECTION('',(0.,0.,-1.));
#2122=DIRECTION('',(-1.,0.,0.));
#2123=DIRECTION('',(-1.,0.,0.));
#2124=DIRECTION('',(-1.,0.,0.));
#2125=DIRECTION('',(0.,1.,0.));
#2126=DIRECTION('',(0.,0.,1.));
#2127=DIRECTION('',(-1.,0.,0.));
#2128=DIRECTION('',(0.,0.,1.));
#2129=DIRECTION('',(1.,0.,0.));
#2130=DIRECTION('',(-1.,0.,0.));
#2131=DIRECTION('',(0.,-1.,0.));
#2132=DIRECTION('',(0.,0.,-1.));
#2133=DIRECTION('',(0.,-1.,0.));
#2134=DIRECTION('',(0.,0.,-1.));
#2135=DIRECTION('',(0.,-1.,0.));
#2136=DIRECTION('',(1.,0.,0.));
#2137=DIRECTION('',(1.,0.,0.));
#2138=DIRECTION('',(0.,0.,-1.));
#2139=DIRECTION('',(-1.,0.,0.));
#2140=DIRECTION('',(0.,-1.,0.));
#2141=DIRECTION('',(0.,0.,-1.));
#2142=DIRECTION('',(0.,1.,0.));
#2143=DIRECTION('',(0.,0.,1.));
#2144=DIRECTION('',(0.,1.,0.));
#2145=DIRECTION('',(1.,0.,0.));
#2146=DIRECTION('',(-1.,0.,0.));
#2147=DIRECTION('',(0.,-1.,0.));
#2148=DIRECTION('',(0.,0.,-1.));
#2149=DIRECTION('',(0.,0.,1.));
#2150=DIRECTION('',(1.,0.,0.));
#2151=CARTESIAN_POINT('',(0.,0.,0.));
#2152=CARTESIAN_POINT('',(-1.25,-6.86,4.3));
#2153=CARTESIAN_POINT('',(-1.25,-5.49,3.0206788584929));
#2154=CARTESIAN_POINT('',(-1.25,-5.49,3.0206788584929));
#2155=CARTESIAN_POINT('',(-1.25,-6.86,3.0206788584929));
#2156=CARTESIAN_POINT('',(-1.25,-5.49,3.7306788584929));
#2157=CARTESIAN_POINT('',(-1.25,-5.49,0.276813841869534));
#2158=CARTESIAN_POINT('',(-1.25,-5.49,0.276813841869534));
#2159=CARTESIAN_POINT('',(-1.25,-6.86,0.276813841869534));
#2160=CARTESIAN_POINT('',(-1.25,-6.86,4.3));
#2161=CARTESIAN_POINT('',(-1.25,-6.86,4.3));
#2162=CARTESIAN_POINT('',(-1.25,-5.49,-0.821620253164561));
#2163=CARTESIAN_POINT('',(-1.25,-5.49,-0.821620253164558));
#2164=CARTESIAN_POINT('',(-1.25,-6.86,-0.821620253164561));
#2165=CARTESIAN_POINT('',(-1.25,-5.49,-0.112113752731897));
#2166=CARTESIAN_POINT('',(-1.25,-5.49,-3.57480902416784));
#2167=CARTESIAN_POINT('',(-1.25,-5.49,-3.57480902416784));
#2168=CARTESIAN_POINT('',(-1.25,-6.86,-3.57480902416784));
#2169=CARTESIAN_POINT('',(-1.25,-6.86,4.3));
#2170=CARTESIAN_POINT('',(0.,-6.86,0.));
#2171=CARTESIAN_POINT('',(-4.20039979361075E-16,-6.86,2.05));
#2172=CARTESIAN_POINT('',(-4.20039979361075E-16,-6.86,1.15));
#2173=CARTESIAN_POINT('',(0.,-6.86,2.23306253234432));
#2174=CARTESIAN_POINT('',(1.25,-6.86,3.0206788584929));
#2175=CARTESIAN_POINT('',(-1.25,-6.86,0.276813841869534));
#2176=CARTESIAN_POINT('',(1.25,-6.86,0.276813841869534));
#2177=CARTESIAN_POINT('',(1.25,-6.86,-4.3));
#2178=CARTESIAN_POINT('',(0.,-6.86,0.));
#2179=CARTESIAN_POINT('',(-4.20039979361075E-16,-6.86,-1.76));
#2180=CARTESIAN_POINT('',(0.9,-6.86,-1.76));
#2181=CARTESIAN_POINT('',(1.25,-6.86,-4.3));
#2182=CARTESIAN_POINT('',(1.25,-6.86,-3.57480902416784));
#2183=CARTESIAN_POINT('',(1.25,-6.86,-0.821620253164558));
#2184=CARTESIAN_POINT('',(0.,-6.86,-1.61733428644656));
#2185=CARTESIAN_POINT('',(-1.25,-6.86,-3.57480902416784));
#2186=CARTESIAN_POINT('',(1.25,-6.86,-4.3));
#2187=CARTESIAN_POINT('',(1.25,-3.3,-1.76));
#2188=CARTESIAN_POINT('',(1.25,-2.55,-1.76));
#2189=CARTESIAN_POINT('',(1.25,1.78,2.05));
#2190=CARTESIAN_POINT('',(1.25,2.53,2.05));
#2191=CARTESIAN_POINT('',(1.25,-5.49,3.7306788584929));
#2192=CARTESIAN_POINT('',(1.25,-5.49,3.7306788584929));
#2193=CARTESIAN_POINT('',(1.25,-5.49,3.0206788584929));
#2194=CARTESIAN_POINT('',(1.25,-5.49,3.7306788584929));
#2195=CARTESIAN_POINT('',(1.25,-5.49,0.276813841869534));
#2196=CARTESIAN_POINT('',(1.25,-5.49,0.276813841869534));
#2197=CARTESIAN_POINT('',(1.25,-6.86,-4.3));
#2198=CARTESIAN_POINT('',(1.25,-6.86,-0.112113752731897));
#2199=CARTESIAN_POINT('',(1.25,-5.49,-0.112113752731897));
#2200=CARTESIAN_POINT('',(1.25,-5.49,-0.112113752731897));
#2201=CARTESIAN_POINT('',(1.25,-5.49,-0.112113752731897));
#2202=CARTESIAN_POINT('',(1.25,-5.49,-0.821620253164558));
#2203=CARTESIAN_POINT('',(1.25,-5.49,-0.112113752731897));
#2204=CARTESIAN_POINT('',(1.25,-5.49,-3.57480902416784));
#2205=CARTESIAN_POINT('',(1.25,-5.49,-3.57480902416784));
#2206=CARTESIAN_POINT('',(1.25,-6.86,-4.3));
#2207=CARTESIAN_POINT('',(1.25,-6.86,-4.3));
#2208=CARTESIAN_POINT('',(1.25,-6.86,-4.3));
#2209=CARTESIAN_POINT('',(1.25,6.86,-4.3));
#2210=CARTESIAN_POINT('',(1.25,6.86,-4.3));
#2211=CARTESIAN_POINT('',(1.25,6.86,4.3));
#2212=CARTESIAN_POINT('',(1.25,-6.86,4.3));
#2213=CARTESIAN_POINT('',(1.25,-6.86,4.3));
#2214=CARTESIAN_POINT('',(1.25,-6.86,-4.3));
#2215=CARTESIAN_POINT('',(1.25,-6.86,3.7306788584929));
#2216=CARTESIAN_POINT('',(1.25,-5.49,3.7306788584929));
#2217=CARTESIAN_POINT('',(-0.205,5.795,-6.97269975197158));
#2218=CARTESIAN_POINT('',(0.872999357460306,5.795,-3.92));
#2219=CARTESIAN_POINT('',(-0.205,5.795,-3.92));
#2220=CARTESIAN_POINT('',(0.205,5.795,-3.92));
#2221=CARTESIAN_POINT('',(0.205,5.795,-6.97269975197158));
#2222=CARTESIAN_POINT('',(0.205,5.795,-7.3));
#2223=CARTESIAN_POINT('',(-0.205,5.795,-7.3));
#2224=CARTESIAN_POINT('',(-0.205,5.795,-7.3));
#2225=CARTESIAN_POINT('',(-0.205,5.795,-6.97269975197158));
#2226=CARTESIAN_POINT('',(0.,5.385,-6.97269975197158));
#2227=CARTESIAN_POINT('',(0.872999357460306,5.385,-3.92));
#2228=CARTESIAN_POINT('',(0.205,5.385,-3.92));
#2229=CARTESIAN_POINT('',(-0.205,5.385,-3.92));
#2230=CARTESIAN_POINT('',(-0.205,5.385,-6.97269975197158));
#2231=CARTESIAN_POINT('',(-0.205,5.385,-7.3));
#2232=CARTESIAN_POINT('',(0.205,5.385,-7.3));
#2233=CARTESIAN_POINT('',(0.205,5.385,-7.3));
#2234=CARTESIAN_POINT('',(0.205,5.385,-6.97269975197158));
#2235=CARTESIAN_POINT('',(0.,7.62,-7.3));
#2236=CARTESIAN_POINT('',(0.205,5.795,-7.3));
#2237=CARTESIAN_POINT('',(-0.205,5.385,-7.3));
#2238=CARTESIAN_POINT('',(-0.205,5.385,-6.97269975197158));
#2239=CARTESIAN_POINT('',(-0.205,-27.2494957733391,-3.92));
#2240=CARTESIAN_POINT('',(0.205,5.795,-6.97269975197158));
#2241=CARTESIAN_POINT('',(0.205,-29.7894957733391,-3.92));
#2242=CARTESIAN_POINT('',(0.872999357460306,-29.7894957733391,-3.92));
#2243=CARTESIAN_POINT('',(0.872999357460306,3.255,-3.92));
#2244=CARTESIAN_POINT('',(-0.205,3.255,-3.92));
#2245=CARTESIAN_POINT('',(0.205,3.255,-3.92));
#2246=CARTESIAN_POINT('',(-0.205,-29.7894957733391,-3.92));
#2247=CARTESIAN_POINT('',(-0.205,2.845,-3.92));
#2248=CARTESIAN_POINT('',(0.872999357460306,2.845,-3.92));
#2249=CARTESIAN_POINT('',(0.205,2.845,-3.92));
#2250=CARTESIAN_POINT('',(0.205,-29.7894957733391,-3.92));
#2251=CARTESIAN_POINT('',(-0.205,-1.825,-3.92));
#2252=CARTESIAN_POINT('',(-0.205,-1.825,-3.92));
#2253=CARTESIAN_POINT('',(0.205,-1.825,-3.92));
#2254=CARTESIAN_POINT('',(-0.205,-2.235,-3.92));
#2255=CARTESIAN_POINT('',(-0.205,-2.235,-3.92));
#2256=CARTESIAN_POINT('',(0.,-2.235,-3.92));
#2257=CARTESIAN_POINT('',(0.205,-2.235,-3.92));
#2258=CARTESIAN_POINT('',(0.205,-1.825,-3.92));
#2259=CARTESIAN_POINT('',(0.,-6.86,-3.92));
#2260=CARTESIAN_POINT('',(0.872999357460306,-6.86,-3.92));
#2261=CARTESIAN_POINT('',(-0.872999357460306,-6.86,-3.92));
#2262=CARTESIAN_POINT('',(-0.872999357460306,-29.7894957733391,-3.92));
#2263=CARTESIAN_POINT('',(-0.872999357460306,6.86,-3.92));
#2264=CARTESIAN_POINT('',(0.,6.86,-3.92));
#2265=CARTESIAN_POINT('',(0.872999357460306,6.86,-3.92));
#2266=CARTESIAN_POINT('',(0.872999357460306,-29.7894957733391,-3.92));
#2267=CARTESIAN_POINT('',(0.872999357460306,0.715,-3.92));
#2268=CARTESIAN_POINT('',(-0.205,0.715,-3.92));
#2269=CARTESIAN_POINT('',(0.205,0.715,-3.92));
#2270=CARTESIAN_POINT('',(-0.205,-29.7894957733391,-3.92));
#2271=CARTESIAN_POINT('',(-0.205,0.305000000000003,-3.92));
#2272=CARTESIAN_POINT('',(0.872999357460306,0.305,-3.92));
#2273=CARTESIAN_POINT('',(0.205,0.305,-3.92));
#2274=CARTESIAN_POINT('',(0.205,-29.7894957733391,-3.92));
#2275=CARTESIAN_POINT('',(-0.205,3.255,-6.97269975197158));
#2276=CARTESIAN_POINT('',(0.205,3.255,-6.97269975197158));
#2277=CARTESIAN_POINT('',(0.205,3.255,-7.3));
#2278=CARTESIAN_POINT('',(-0.205,3.255,-7.3));
#2279=CARTESIAN_POINT('',(-0.205,3.255,-7.3));
#2280=CARTESIAN_POINT('',(-0.205,3.255,-6.97269975197158));
#2281=CARTESIAN_POINT('',(0.,5.08,-7.3));
#2282=CARTESIAN_POINT('',(0.205,3.255,-7.3));
#2283=CARTESIAN_POINT('',(0.205,2.845,-7.3));
#2284=CARTESIAN_POINT('',(0.205,2.845,-7.3));
#2285=CARTESIAN_POINT('',(-0.205,2.845,-7.3));
#2286=CARTESIAN_POINT('',(-0.205,2.845,-7.3));
#2287=CARTESIAN_POINT('',(0.205,3.255,-6.97269975197158));
#2288=CARTESIAN_POINT('',(0.205,2.845,-6.97269975197158));
#2289=CARTESIAN_POINT('',(-0.205,2.845,-6.97269975197158));
#2290=CARTESIAN_POINT('',(-0.205,2.845,-6.97269975197158));
#2291=CARTESIAN_POINT('',(0.,2.845,-6.97269975197158));
#2292=CARTESIAN_POINT('',(-0.205,0.715000000000001,-6.97269975197158));
#2293=CARTESIAN_POINT('',(0.205,0.715000000000001,-6.97269975197158));
#2294=CARTESIAN_POINT('',(0.205,0.715000000000001,-7.3));
#2295=CARTESIAN_POINT('',(-0.205,0.715000000000001,-7.3));
#2296=CARTESIAN_POINT('',(-0.205,0.715000000000001,-7.3));
#2297=CARTESIAN_POINT('',(-0.205,0.715000000000001,-6.97269975197158));
#2298=CARTESIAN_POINT('',(0.205,0.715000000000001,-6.97269975197158));
#2299=CARTESIAN_POINT('',(0.205,0.305000000000001,-6.97269975197158));
#2300=CARTESIAN_POINT('',(0.205,0.305000000000001,-7.3));
#2301=CARTESIAN_POINT('',(0.205,0.715000000000001,-7.3));
#2302=CARTESIAN_POINT('',(0.,0.305000000000001,-6.97269975197158));
#2303=CARTESIAN_POINT('',(-0.205,0.305000000000001,-6.97269975197158));
#2304=CARTESIAN_POINT('',(-0.205,0.305000000000001,-7.3));
#2305=CARTESIAN_POINT('',(0.205,0.305000000000001,-7.3));
#2306=CARTESIAN_POINT('',(-0.205,0.305000000000001,-6.97269975197158));
#2307=CARTESIAN_POINT('',(-0.205,0.305000000000001,-7.3));
#2308=CARTESIAN_POINT('',(0.,2.54,-7.3));
#2309=CARTESIAN_POINT('',(-1.25,-6.86,-4.3));
#2310=CARTESIAN_POINT('',(-0.872999357460306,-29.7894957733391,-4.3));
#2311=CARTESIAN_POINT('',(-0.872999357460306,-6.86,-4.3));
#2312=CARTESIAN_POINT('',(-0.872999357460306,6.86,-4.3));
#2313=CARTESIAN_POINT('',(-1.25,-6.86,-4.3));
#2314=CARTESIAN_POINT('',(-1.25,-6.86,-4.3));
#2315=CARTESIAN_POINT('',(-1.25,-6.86,-4.3));
#2316=CARTESIAN_POINT('',(-1.25,6.86,-4.3));
#2317=CARTESIAN_POINT('',(-1.25,6.86,-4.3));
#2318=CARTESIAN_POINT('',(0.,-6.86,0.));
#2319=CARTESIAN_POINT('',(-1.25,-6.86,4.3));
#2320=CARTESIAN_POINT('',(-1.25,-6.86,-0.112113752731897));
#2321=CARTESIAN_POINT('',(-1.25,-6.86,-0.112113752731897));
#2322=CARTESIAN_POINT('',(0.,-6.86,0.));
#2323=CARTESIAN_POINT('',(-1.25,-6.86,4.3));
#2324=CARTESIAN_POINT('',(-1.25,-6.86,4.3));
#2325=CARTESIAN_POINT('',(-1.25,-6.86,3.7306788584929));
#2326=CARTESIAN_POINT('',(-1.25,-6.86,3.7306788584929));
#2327=CARTESIAN_POINT('',(1.25,-6.86,4.3));
#2328=CARTESIAN_POINT('',(-1.25,-6.86,4.3));
#2329=CARTESIAN_POINT('',(-1.25,-5.49,3.7306788584929));
#2330=CARTESIAN_POINT('',(-1.25,-5.49,3.7306788584929));
#2331=CARTESIAN_POINT('',(-1.25,-5.49,3.7306788584929));
#2332=CARTESIAN_POINT('',(-1.25,-6.86,4.3));
#2333=CARTESIAN_POINT('',(-1.25,6.86,4.3));
#2334=CARTESIAN_POINT('',(-1.25,6.86,4.3));
#2335=CARTESIAN_POINT('',(-1.25,-6.86,4.3));
#2336=CARTESIAN_POINT('',(-1.25,-5.49,-0.112113752731897));
#2337=CARTESIAN_POINT('',(-1.25,-5.49,-0.112113752731897));
#2338=CARTESIAN_POINT('',(-1.25,-5.49,-0.112113752731897));
#2339=CARTESIAN_POINT('',(1.25,-6.86,-4.3));
#2340=CARTESIAN_POINT('',(1.25,-5.49,-0.821620253164558));
#2341=CARTESIAN_POINT('',(-1.25,-6.86,-4.3));
#2342=CARTESIAN_POINT('',(-1.25,-6.86,-4.3));
#2343=CARTESIAN_POINT('',(0.872999357460306,-6.86,-4.3));
#2344=CARTESIAN_POINT('',(0.872999357460306,-29.7894957733391,-4.3));
#2345=CARTESIAN_POINT('',(0.872999357460307,6.86,-4.3));
#2346=CARTESIAN_POINT('',(-1.25,6.86,-4.3));
#2347=CARTESIAN_POINT('',(1.25,-6.86,-4.3));
#2348=CARTESIAN_POINT('',(1.25,-5.49,3.0206788584929));
#2349=CARTESIAN_POINT('',(1.25,-6.86,4.3));
#2350=CARTESIAN_POINT('',(1.25,6.86,4.3));
#2351=CARTESIAN_POINT('',(0.,-6.86,0.));
#2352=CARTESIAN_POINT('',(0.872999357460308,-6.86,-2.49080999983399E-16));
#2353=CARTESIAN_POINT('',(-0.872999357460308,-6.86,-2.49080999983399E-16));
#2354=CARTESIAN_POINT('',(0.,6.86,0.));
#2355=CARTESIAN_POINT('',(0.872999357460308,6.86,-2.49080999983399E-16));
#2356=CARTESIAN_POINT('',(-0.872999357460308,6.86,-2.49080999983399E-16));
#2357=CARTESIAN_POINT('',(-5.16455642757965E-16,-8.38,2.02268126198739));
#2358=CARTESIAN_POINT('',(-5.13110062251576E-16,-8.38,2.05));
#2359=CARTESIAN_POINT('',(0.0273187380126129,-8.38,2.05));
#2360=CARTESIAN_POINT('',(-4.59675511337002E-16,-7.50731873801261,2.05));
#2361=CARTESIAN_POINT('',(-4.59675511337002E-16,-7.50731873801261,2.05));
#2362=CARTESIAN_POINT('',(0.9,-7.50731873801261,2.05));
#2363=CARTESIAN_POINT('',(-4.10732971072025E-16,-6.708,2.05));
#2364=CARTESIAN_POINT('',(-4.10732971072025E-16,-6.708,-1.76));
#2365=CARTESIAN_POINT('',(-4.59839685860303E-16,-7.51,-1.76));
#2366=CARTESIAN_POINT('',(-0.900000000000001,-7.51,-1.76));
#2367=CARTESIAN_POINT('',(-4.59839685860303E-16,-7.51,-1.76));
#2368=CARTESIAN_POINT('',(-5.13110062251576E-16,-8.38,-1.76));
#2369=CARTESIAN_POINT('',(-0.0300000000000007,-8.38,-1.76));
#2370=CARTESIAN_POINT('',(-5.28627334894604E-16,-8.38,-1.88670814682104));
#2371=CARTESIAN_POINT('',(0.872999357460306,-29.7894957733391,-4.3));
#2372=CARTESIAN_POINT('',(-0.872999357460306,-29.7894957733391,-4.3));
#2373=CARTESIAN_POINT('',(-0.205,-1.825,-6.97269975197158));
#2374=CARTESIAN_POINT('',(0.205,-1.825,-6.97269975197158));
#2375=CARTESIAN_POINT('',(0.205,-1.825,-7.3));
#2376=CARTESIAN_POINT('',(-0.205,-1.825,-7.3));
#2377=CARTESIAN_POINT('',(-0.205,-1.825,-7.3));
#2378=CARTESIAN_POINT('',(-0.205,-1.825,-6.97269975197158));
#2379=CARTESIAN_POINT('',(0.205,-1.825,-6.97269975197158));
#2380=CARTESIAN_POINT('',(0.205,-2.235,-6.97269975197158));
#2381=CARTESIAN_POINT('',(0.205,-2.235,-7.3));
#2382=CARTESIAN_POINT('',(0.205,-1.825,-7.3));
#2383=CARTESIAN_POINT('',(0.,-2.235,-6.97269975197158));
#2384=CARTESIAN_POINT('',(-0.205,-2.235,-6.97269975197158));
#2385=CARTESIAN_POINT('',(-0.205,-2.235,-7.3));
#2386=CARTESIAN_POINT('',(0.205,-2.235,-7.3));
#2387=CARTESIAN_POINT('',(-0.205,-2.235,-6.97269975197158));
#2388=CARTESIAN_POINT('',(-0.205,-2.235,-7.3));
#2389=CARTESIAN_POINT('',(0.,0.,-7.3));
#2390=CARTESIAN_POINT('',(1.18273489440508,1.78,2.05));
#2391=CARTESIAN_POINT('',(1.18273489440508,1.78,2.05));
#2392=CARTESIAN_POINT('',(1.18273489440508,2.53,2.05));
#2393=CARTESIAN_POINT('',(1.18273489440508,1.38,1.65));
#2394=CARTESIAN_POINT('',(1.18273489440508,1.38,1.65));
#2395=CARTESIAN_POINT('',(1.18273489440508,2.18,1.65));
#2396=CARTESIAN_POINT('',(1.18273489440508,1.38,2.45));
#2397=CARTESIAN_POINT('',(1.18273489440508,1.38,2.45));
#2398=CARTESIAN_POINT('',(1.18273489440508,2.18,2.45));
#2399=CARTESIAN_POINT('',(1.18273489440508,2.18,2.45));
#2400=CARTESIAN_POINT('',(1.18273489440508,2.18,1.65));
#2401=CARTESIAN_POINT('',(1.18273489440508,1.78,2.05));
#2402=CARTESIAN_POINT('',(1.18273489440508,-3.3,-1.76));
#2403=CARTESIAN_POINT('',(1.18273489440508,-3.3,-1.76));
#2404=CARTESIAN_POINT('',(1.18273489440508,-2.55,-1.76));
#2405=CARTESIAN_POINT('',(1.18273489440508,-3.7,-2.16));
#2406=CARTESIAN_POINT('',(1.18273489440508,-3.7,-2.16));
#2407=CARTESIAN_POINT('',(1.18273489440508,-2.9,-2.16));
#2408=CARTESIAN_POINT('',(1.18273489440508,-3.7,-1.36));
#2409=CARTESIAN_POINT('',(1.18273489440508,-3.7,-1.36));
#2410=CARTESIAN_POINT('',(1.18273489440508,-2.9,-1.36));
#2411=CARTESIAN_POINT('',(1.18273489440508,-2.9,-1.36));
#2412=CARTESIAN_POINT('',(1.18273489440508,-2.9,-1.76));
#2413=CARTESIAN_POINT('',(1.18273489440508,-3.3,-1.76));
#2414=CARTESIAN_POINT('',(2.52,0.,0.));
#2415=CARTESIAN_POINT('',(2.52,2.18,1.902));
#2416=CARTESIAN_POINT('',(2.52,1.632,1.902));
#2417=CARTESIAN_POINT('',(2.52,1.928,1.902));
#2418=CARTESIAN_POINT('',(2.52,1.928,2.45));
#2419=CARTESIAN_POINT('',(2.52,1.928,2.198));
#2420=CARTESIAN_POINT('',(2.52,1.38,2.198));
#2421=CARTESIAN_POINT('',(2.52,1.632,2.198));
#2422=CARTESIAN_POINT('',(2.52,1.632,1.65));
#2423=CARTESIAN_POINT('',(2.52,1.632,-4.42354486374086E-16));
#2424=CARTESIAN_POINT('',(1.976,1.088,2.742));
#2425=CARTESIAN_POINT('',(2.268,1.38,2.45));
#2426=CARTESIAN_POINT('',(2.268,1.38,2.45));
#2427=CARTESIAN_POINT('',(2.268,1.38,1.65));
#2428=CARTESIAN_POINT('',(1.886,0.998,1.268));
#2429=CARTESIAN_POINT('',(2.52,0.,2.198));
#2430=CARTESIAN_POINT('',(3.16266666666667,1.28533333333333,1.55533333333333));
#2431=CARTESIAN_POINT('',(2.268,2.18,2.45));
#2432=CARTESIAN_POINT('',(2.268,2.18,2.45));
#2433=CARTESIAN_POINT('',(2.52,1.928,0.));
#2434=CARTESIAN_POINT('',(3.16266666666667,1.28533333333333,2.54466666666667));
#2435=CARTESIAN_POINT('',(2.268,2.18,1.65));
#2436=CARTESIAN_POINT('',(2.268,2.18,1.65));
#2437=CARTESIAN_POINT('',(2.52,0.,1.902));
#2438=CARTESIAN_POINT('',(2.268,1.38,1.65));
#2439=CARTESIAN_POINT('',(2.52,1.38,1.65));
#2440=CARTESIAN_POINT('',(2.52,2.18,1.65));
#2441=CARTESIAN_POINT('',(2.52,1.38,1.65));
#2442=CARTESIAN_POINT('',(2.52,2.18,2.05));
#2443=CARTESIAN_POINT('',(2.52,2.18,2.45));
#2444=CARTESIAN_POINT('',(2.52,2.18,2.45));
#2445=CARTESIAN_POINT('',(2.52,1.38,2.45));
#2446=CARTESIAN_POINT('',(2.52,1.38,2.45));
#2447=CARTESIAN_POINT('',(2.52,0.,0.));
#2448=CARTESIAN_POINT('',(2.52,-2.9,-1.908));
#2449=CARTESIAN_POINT('',(2.52,-3.448,-1.908));
#2450=CARTESIAN_POINT('',(2.52,-3.152,-1.908));
#2451=CARTESIAN_POINT('',(2.52,-3.152,-1.36));
#2452=CARTESIAN_POINT('',(2.52,-3.152,-1.612));
#2453=CARTESIAN_POINT('',(2.52,-3.7,-1.612));
#2454=CARTESIAN_POINT('',(2.52,-3.448,-1.612));
#2455=CARTESIAN_POINT('',(2.52,-3.448,-2.16));
#2456=CARTESIAN_POINT('',(2.52,-3.152,0.));
#2457=CARTESIAN_POINT('',(1.46933333333333,-2.10133333333333,-2.95866666666667));
#2458=CARTESIAN_POINT('',(2.268,-2.9,-2.16));
#2459=CARTESIAN_POINT('',(2.268,-2.9,-2.16));
#2460=CARTESIAN_POINT('',(2.268,-2.9,-1.36));
#2461=CARTESIAN_POINT('',(1.46933333333333,-2.10133333333333,-0.561333333333335));
#2462=CARTESIAN_POINT('',(2.52,0.,-1.908));
#2463=CARTESIAN_POINT('',(3.156,-2.812,-1.272));
#2464=CARTESIAN_POINT('',(2.268,-3.7,-2.16));
#2465=CARTESIAN_POINT('',(2.268,-3.7,-2.16));
#2466=CARTESIAN_POINT('',(2.52,-3.448,0.));
#2467=CARTESIAN_POINT('',(3.66933333333333,-2.29866666666667,-2.76133333333334));
#2468=CARTESIAN_POINT('',(2.268,-3.7,-1.36));
#2469=CARTESIAN_POINT('',(2.268,-3.7,-1.36));
#2470=CARTESIAN_POINT('',(2.52,0.,-1.612));
#2471=CARTESIAN_POINT('',(2.268,-2.9,-1.36));
#2472=CARTESIAN_POINT('',(2.52,-2.9,-1.36));
#2473=CARTESIAN_POINT('',(2.52,-3.7,-1.36));
#2474=CARTESIAN_POINT('',(2.52,-2.9,-1.36));
#2475=CARTESIAN_POINT('',(2.52,-3.7,-1.36));
#2476=CARTESIAN_POINT('',(2.52,-3.7,-2.16));
#2477=CARTESIAN_POINT('',(2.52,-3.7,-2.16));
#2478=CARTESIAN_POINT('',(2.52,-2.9,-2.16));
#2479=CARTESIAN_POINT('',(2.52,-2.9,-1.76));
#2480=CARTESIAN_POINT('',(0.,-5.49,-1.61733428644656));
#2481=CARTESIAN_POINT('',(0.,-5.49,-1.61733428644656));
#2482=CARTESIAN_POINT('',(-1.25,-5.49,-0.112113752731897));
#2483=CARTESIAN_POINT('',(-1.25,-5.49,-0.112113752731897));
#2484=CARTESIAN_POINT('',(0.,-5.49,-1.61733428644656));
#2485=CARTESIAN_POINT('',(0.,-5.49,2.23306253234432));
#2486=CARTESIAN_POINT('',(0.,-5.49,2.23306253234432));
#2487=CARTESIAN_POINT('',(-1.25,-5.49,3.7306788584929));
#2488=CARTESIAN_POINT('',(0.,-5.49,2.23306253234432));
#2489=CARTESIAN_POINT('',(-1.25,-5.49,3.7306788584929));
#2490=MECHANICAL_DESIGN_GEOMETRIC_PRESENTATION_REPRESENTATION('',(#1160,
#1161,#1162,#1163,#1164,#1165,#1166,#1167,#1168,#1169,#1170,#1171,#1172,
#1173,#1174,#1175,#1176,#1177,#1178,#1179,#1180,#1181,#1182,#1183,#1184,
#1185,#1186,#1187,#1188,#1189,#1190,#1191,#1192,#1193,#1194,#1195,#1196,
#1197,#1198,#1199,#1200,#1201,#1202,#1203,#1204,#1205,#1206,#1207,#1208,
#1209,#1210,#1211,#1212,#1213,#1214,#1215,#1216,#1217,#1218,#1219,#1220,
#1221,#1222,#1223,#1224,#1225,#1226,#1227,#1228,#1229,#1230,#1231),#2491);
#2491=(
GEOMETRIC_REPRESENTATION_CONTEXT(3)
GLOBAL_UNCERTAINTY_ASSIGNED_CONTEXT((#2492))
GLOBAL_UNIT_ASSIGNED_CONTEXT((#2495,#2494,#2493))
REPRESENTATION_CONTEXT('5710113100F','TOP_LEVEL_ASSEMBLY_PART')
);
#2492=UNCERTAINTY_MEASURE_WITH_UNIT(LENGTH_MEASURE(0.005),#2495,
'DISTANCE_ACCURACY_VALUE','Maximum Tolerance applied to model');
#2493=(
NAMED_UNIT(*)
SI_UNIT($,.STERADIAN.)
SOLID_ANGLE_UNIT()
);
#2494=(
NAMED_UNIT(*)
PLANE_ANGLE_UNIT()
SI_UNIT($,.RADIAN.)
);
#2495=(
LENGTH_UNIT()
NAMED_UNIT(*)
SI_UNIT(.MILLI.,.METRE.)
);
#2496=PRODUCT_DEFINITION_SHAPE('','',#2497);
#2497=PRODUCT_DEFINITION('','',#2499,#2498);
#2498=PRODUCT_DEFINITION_CONTEXT('',#2505,'design');
#2499=PRODUCT_DEFINITION_FORMATION_WITH_SPECIFIED_SOURCE('','',#2501,
 .NOT_KNOWN.);
#2500=PRODUCT_RELATED_PRODUCT_CATEGORY('','',(#2501));
#2501=PRODUCT('5710113100F','5710113100F','5710113100F',(#2503));
#2502=PRODUCT_CATEGORY('','');
#2503=PRODUCT_CONTEXT('',#2505,'mechanical');
#2504=APPLICATION_PROTOCOL_DEFINITION('international standard',
'automotive_design',2010,#2505);
#2505=APPLICATION_CONTEXT(
'core data for automotive mechanical design processes');
ENDSEC;
END-ISO-10303-21;
