999
"DXF R12 Output" (www.mydxf.blogspot.com)
 0 
SECTION
 2 
HEADER
 9 
$ACADVER
 1 
AC1009
 9 
$EXTMIN
 10 
 0 
 20 
 0 
 9 
$EXTMAX
 10 
 8.5 
 20 
 11 
 0 
ENDSEC
 0 
SECTION
 2 
ENTITIES
0
LINE
8
Main
10
95.080200
20
198.223000
11
54.393500
21
198.223000
0
LINE
8
Main
10
54.393500
20
198.223000
11
54.393518
21
232.393600
0
LINE
8
Main
10
54.393518
20
232.393600
11
95.080200
21
232.394000
0
LINE
8
Main
10
95.080200
20
232.394000
11
95.080200
21
198.223000
0
LINE
8
Layer 1
10
64.914800
20
211.046000
11
66.476760
21
208.115800
0
LINE
8
Layer 1
10
66.476760
20
208.115800
11
66.661403
21
207.937937
0
LINE
8
Layer 1
10
66.661403
20
207.937937
11
66.902043
21
207.912794
0
LINE
8
Layer 1
10
66.902043
20
207.912794
11
67.118426
21
208.027645
0
LINE
8
Layer 1
10
67.118426
20
208.027645
11
67.230299
21
208.269762
0
LINE
8
Layer 1
10
67.230299
20
208.269762
11
67.413792
21
210.450942
0
LINE
8
Layer 1
10
67.413792
20
210.450942
11
65.851822
21
213.381142
0
LINE
8
Layer 1
10
65.851822
20
213.381142
11
65.659171
21
213.558733
0
LINE
8
Layer 1
10
65.659171
20
213.558733
11
65.412662
21
213.587107
0
LINE
8
Layer 1
10
65.412662
20
213.587107
11
65.197359
21
213.473994
0
LINE
8
Layer 1
10
65.197359
20
213.473994
11
65.098329
21
213.227127
0
LINE
8
Layer 1
10
65.098329
20
213.227127
11
64.914800
21
211.046000
0
LINE
8
Layer 1
10
58.997100
20
207.874000
11
59.051836
21
207.628831
0
LINE
8
Layer 1
10
59.051836
20
207.628831
11
59.257801
21
207.486156
0
LINE
8
Layer 1
10
59.257801
20
207.486156
11
59.517099
21
207.476916
0
LINE
8
Layer 1
10
59.517099
20
207.476916
11
59.731839
21
207.632055
0
LINE
8
Layer 1
10
59.731839
20
207.632055
11
61.808939
21
210.694505
0
LINE
8
Layer 1
10
61.808939
20
210.694505
11
62.011235
21
213.117555
0
LINE
8
Layer 1
10
62.011235
20
213.117555
11
61.948095
21
213.366524
0
LINE
8
Layer 1
10
61.948095
20
213.366524
11
61.744059
21
213.511446
0
LINE
8
Layer 1
10
61.744059
20
213.511446
11
61.489745
21
213.525548
0
LINE
8
Layer 1
10
61.489745
20
213.525548
11
61.275769
21
213.382057
0
LINE
8
Layer 1
10
61.275769
20
213.382057
11
59.199399
21
210.319597
0
LINE
8
Layer 1
10
59.199399
20
210.319597
11
58.997106
21
207.874017
0
LINE
8
Layer 1
10
58.997106
20
207.874017
11
58.997100
21
207.874000
0
LINE
8
Layer 1
10
62.397000
20
217.390000
11
62.580497
21
219.576410
0
LINE
8
Layer 1
10
62.580497
20
219.576410
11
61.018527
21
222.506610
0
LINE
8
Layer 1
10
61.018527
20
222.506610
11
60.824766
21
222.673242
0
LINE
8
Layer 1
10
60.824766
20
222.673242
11
60.584255
21
222.690238
0
LINE
8
Layer 1
10
60.584255
20
222.690238
11
60.372516
21
222.575979
0
LINE
8
Layer 1
10
60.372516
20
222.575979
11
60.265069
21
222.348848
0
LINE
8
Layer 1
10
60.265069
20
222.348848
11
60.062695
21
220.169968
0
LINE
8
Layer 1
10
60.062695
20
220.169968
11
61.624665
21
217.239768
0
LINE
8
Layer 1
10
61.624665
20
217.239768
11
61.822294
21
217.060128
0
LINE
8
Layer 1
10
61.822294
20
217.060128
11
62.074806
21
217.036904
0
LINE
8
Layer 1
10
62.074806
20
217.036904
11
62.295331
21
217.152670
0
LINE
8
Layer 1
10
62.295331
20
217.152670
11
62.397000
21
217.390002
0
LINE
8
Layer 1
10
62.397000
20
217.390002
11
62.397000
21
217.390000
0
LINE
8
Layer 1
10
70.556500
20
224.858000
11
70.272753
21
224.974663
0
LINE
8
Layer 1
10
70.272753
20
224.974663
11
69.986465
21
224.858071
0
LINE
8
Layer 1
10
69.986465
20
224.858071
11
69.178027
21
224.046560
0
LINE
8
Layer 1
10
69.178027
20
224.046560
11
68.516242
21
216.510700
0
LINE
8
Layer 1
10
68.516242
20
216.510700
11
69.104328
21
215.939685
0
LINE
8
Layer 1
10
69.104328
20
215.939685
11
69.387430
21
215.823486
0
LINE
8
Layer 1
10
69.387430
20
215.823486
11
69.674384
21
215.939639
0
LINE
8
Layer 1
10
69.674384
20
215.939639
11
70.481668
21
216.756727
0
LINE
8
Layer 1
10
70.481668
20
216.756727
11
71.142370
21
224.281657
0
LINE
8
Layer 1
10
71.142370
20
224.281657
11
70.556500
21
224.858000
0
LINE
8
Layer 1
10
69.581900
20
206.574000
11
70.262488
21
214.106860
0
LINE
8
Layer 1
10
70.262488
20
214.106860
11
69.674398
21
214.685386
0
LINE
8
Layer 1
10
69.674398
20
214.685386
11
69.387365
21
214.793540
0
LINE
8
Layer 1
10
69.387365
20
214.793540
11
69.104370
21
214.685457
0
LINE
8
Layer 1
10
69.104370
20
214.685457
11
68.277129
21
213.866436
0
LINE
8
Layer 1
10
68.277129
20
213.866436
11
67.634144
21
206.353866
0
LINE
8
Layer 1
10
67.634144
20
206.353866
11
68.204182
21
205.758809
0
LINE
8
Layer 1
10
68.204182
20
205.758809
11
68.489813
21
205.646179
0
LINE
8
Layer 1
10
68.489813
20
205.646179
11
68.773455
21
205.758826
0
LINE
8
Layer 1
10
68.773455
20
205.758826
11
69.581900
21
206.574005
0
LINE
8
Layer 1
10
69.581900
20
206.574005
11
69.581900
21
206.574000
0
LINE
8
Layer 1
10
69.637500
20
225.211000
11
69.732631
21
225.484686
0
LINE
8
Layer 1
10
69.732631
20
225.484686
11
69.637384
21
225.782033
0
LINE
8
Layer 1
10
69.637384
20
225.782033
11
68.957664
21
226.465722
0
LINE
8
Layer 1
10
68.957664
20
226.465722
11
60.301900
21
226.466000
0
LINE
8
Layer 1
10
60.301900
20
226.466000
11
59.622063
21
225.782290
0
LINE
8
Layer 1
10
59.622063
20
225.782290
11
59.477667
21
225.531412
0
LINE
8
Layer 1
10
59.477667
20
225.531412
11
59.622045
21
225.211275
0
LINE
8
Layer 1
10
59.622045
20
225.211275
11
60.301899
21
224.505026
0
LINE
8
Layer 1
10
60.301899
20
224.505026
11
68.957700
21
224.505000
0
LINE
8
Layer 1
10
68.957700
20
224.505000
11
69.637537
21
225.211252
0
LINE
8
Layer 1
10
69.637537
20
225.211252
11
69.637500
21
225.211000
0
LINE
8
Layer 1
10
57.820900
20
215.940000
11
58.055411
21
215.831696
0
LINE
8
Layer 1
10
58.055411
20
215.831696
11
58.390942
21
215.940092
0
LINE
8
Layer 1
10
58.390942
20
215.940092
11
59.199369
21
216.751440
0
LINE
8
Layer 1
10
59.199369
20
216.751440
11
59.861157
21
224.287300
0
LINE
8
Layer 1
10
59.861157
20
224.287300
11
59.273071
21
224.858315
0
LINE
8
Layer 1
10
59.273071
20
224.858315
11
58.981727
21
224.973735
0
LINE
8
Layer 1
10
58.981727
20
224.973735
11
58.703043
21
224.858357
0
LINE
8
Layer 1
10
58.703043
20
224.858357
11
57.894598
21
224.046875
0
LINE
8
Layer 1
10
57.894598
20
224.046875
11
57.232800
21
216.511000
0
LINE
8
Layer 1
10
57.232800
20
216.511000
11
57.820886
21
215.939985
0
LINE
8
Layer 1
10
57.820886
20
215.939985
11
57.820900
21
215.940000
0
LINE
8
Layer 1
10
58.317200
20
206.574000
11
58.978985
21
214.106860
0
LINE
8
Layer 1
10
58.978985
20
214.106860
11
58.390899
21
214.685386
0
LINE
8
Layer 1
10
58.390899
20
214.685386
11
58.105540
21
214.792025
0
LINE
8
Layer 1
10
58.105540
20
214.792025
11
57.820847
21
214.685291
0
LINE
8
Layer 1
10
57.820847
20
214.685291
11
56.993627
21
213.866436
0
LINE
8
Layer 1
10
56.993627
20
213.866436
11
56.350642
21
206.353866
0
LINE
8
Layer 1
10
56.350642
20
206.353866
11
56.920684
21
205.758809
0
LINE
8
Layer 1
10
56.920684
20
205.758809
11
57.206267
21
205.646202
0
LINE
8
Layer 1
10
57.206267
20
205.646202
11
57.490003
21
205.758770
0
LINE
8
Layer 1
10
57.490003
20
205.758770
11
58.317202
21
206.574006
0
LINE
8
Layer 1
10
58.317202
20
206.574006
11
58.317200
21
206.574000
0
LINE
8
Layer 1
10
67.193500
20
206.111000
11
58.519500
21
206.111000
0
LINE
8
Layer 1
10
58.519500
20
206.111000
11
57.838912
21
205.406250
0
LINE
8
Layer 1
10
57.838912
20
205.406250
11
57.728626
21
205.122373
0
LINE
8
Layer 1
10
57.728626
20
205.122373
11
57.838859
21
204.833749
0
LINE
8
Layer 1
10
57.838859
20
204.833749
11
58.519500
21
204.172564
0
LINE
8
Layer 1
10
58.519500
20
204.172564
11
67.193500
21
204.173000
0
LINE
8
Layer 1
10
67.193500
20
204.173000
11
67.873333
21
204.834171
0
LINE
8
Layer 1
10
67.873333
20
204.834171
11
67.982618
21
205.123676
0
LINE
8
Layer 1
10
67.982618
20
205.123676
11
67.873404
21
205.406675
0
LINE
8
Layer 1
10
67.873404
20
205.406675
11
67.193500
21
206.111000
0
LINE
8
Layer 1
10
68.755400
20
215.016000
11
68.870269
21
215.303520
0
LINE
8
Layer 1
10
68.870269
20
215.303520
11
68.755400
21
215.586955
0
LINE
8
Layer 1
10
68.755400
20
215.586955
11
68.075567
21
216.293264
0
LINE
8
Layer 1
10
68.075567
20
216.293264
11
65.061400
21
216.293000
0
LINE
8
Layer 1
10
65.061400
20
216.293000
11
64.362764
21
215.586748
0
LINE
8
Layer 1
10
64.362764
20
215.586748
11
64.254770
21
215.296319
0
LINE
8
Layer 1
10
64.254770
20
215.296319
11
64.372324
21
215.015697
0
LINE
8
Layer 1
10
64.372324
20
215.015697
11
65.061417
21
214.332022
0
LINE
8
Layer 1
10
65.061417
20
214.332022
11
68.075600
21
214.332000
0
LINE
8
Layer 1
10
68.075600
20
214.332000
11
68.755433
21
215.015714
0
LINE
8
Layer 1
10
68.755433
20
215.015714
11
68.755400
21
215.016000
0
LINE
8
Layer 1
10
59.419700
20
214.332000
11
58.739962
21
215.015699
0
LINE
8
Layer 1
10
58.739962
20
215.015699
11
58.618849
21
215.304162
0
LINE
8
Layer 1
10
58.618849
20
215.304162
11
58.739863
21
215.586725
0
LINE
8
Layer 1
10
58.739863
20
215.586725
11
59.419700
21
216.292977
0
LINE
8
Layer 1
10
59.419700
20
216.292977
11
62.442860
21
216.292977
0
LINE
8
Layer 1
10
62.442860
20
216.292977
11
63.127149
21
215.591117
0
LINE
8
Layer 1
10
63.127149
20
215.591117
11
63.232945
21
215.298466
0
LINE
8
Layer 1
10
63.232945
20
215.298466
11
63.113673
21
215.015713
0
LINE
8
Layer 1
10
63.113673
20
215.015713
11
62.433840
21
214.331999
0
LINE
8
Layer 1
10
62.433840
20
214.331999
11
59.419700
21
214.332000
0
LINE
8
Layer 1
10
67.762700
20
223.010000
11
65.686350
21
219.921960
0
LINE
8
Layer 1
10
65.686350
20
219.921960
11
65.466005
21
217.502670
0
LINE
8
Layer 1
10
65.466005
20
217.502670
11
65.528369
21
217.247689
0
LINE
8
Layer 1
10
65.528369
20
217.247689
11
65.747962
21
217.091820
0
LINE
8
Layer 1
10
65.747962
20
217.091820
11
66.014965
21
217.075639
0
LINE
8
Layer 1
10
66.014965
20
217.075639
11
66.219554
21
217.239721
0
LINE
8
Layer 1
10
66.219554
20
217.239721
11
68.277094
21
220.320171
0
LINE
8
Layer 1
10
68.277094
20
220.320171
11
68.498190
21
222.724431
0
LINE
8
Layer 1
10
68.498190
20
222.724431
11
68.440555
21
222.974638
0
LINE
8
Layer 1
10
68.440555
20
222.974638
11
68.230344
21
223.134697
0
LINE
8
Layer 1
10
68.230344
20
223.134697
11
67.970183
21
223.161014
0
LINE
8
Layer 1
10
67.970183
20
223.161014
11
67.762696
21
223.009997
0
LINE
8
Layer 1
10
67.762696
20
223.009997
11
67.762700
21
223.010000
0
LINE
8
Layer 1
10
65.466000
20
223.078000
11
65.382755
21
223.341013
0
LINE
8
Layer 1
10
65.382755
20
223.341013
11
64.767364
21
223.957060
0
LINE
8
Layer 1
10
64.767364
20
223.957060
11
64.546588
21
224.035160
0
LINE
8
Layer 1
10
64.546588
20
224.035160
11
64.326668
21
223.957131
0
LINE
8
Layer 1
10
64.326668
20
223.957131
11
63.444546
21
223.055461
0
LINE
8
Layer 1
10
63.444546
20
223.055461
11
63.352055
21
222.875139
0
LINE
8
Layer 1
10
63.352055
20
222.875139
11
62.819605
21
216.729239
0
LINE
8
Layer 1
10
62.819605
20
216.729239
11
62.909962
21
216.478556
0
LINE
8
Layer 1
10
62.909962
20
216.478556
11
63.517490
21
215.872721
0
LINE
8
Layer 1
10
63.517490
20
215.872721
11
63.746400
21
215.788802
0
LINE
8
Layer 1
10
63.746400
20
215.788802
11
63.976975
21
215.872756
0
LINE
8
Layer 1
10
63.976975
20
215.872756
11
64.841063
21
216.751781
0
LINE
8
Layer 1
10
64.841063
20
216.751781
11
64.950950
21
216.977135
0
LINE
8
Layer 1
10
64.950950
20
216.977135
11
65.466001
21
223.077995
0
LINE
8
Layer 1
10
65.466001
20
223.077995
11
65.466000
21
223.078000
0
LINE
8
Layer 1
10
62.635400
20
213.866000
11
63.517529
21
214.722588
0
LINE
8
Layer 1
10
63.517529
20
214.722588
11
63.749973
21
214.809164
0
LINE
8
Layer 1
10
63.749973
20
214.809164
11
63.977018
21
214.722517
0
LINE
8
Layer 1
10
63.977018
20
214.722517
11
64.583925
21
214.128987
0
LINE
8
Layer 1
10
64.583925
20
214.128987
11
64.675654
21
213.865999
0
LINE
8
Layer 1
10
64.675654
20
213.865999
11
64.142622
21
207.741149
0
LINE
8
Layer 1
10
64.142622
20
207.741149
11
64.050717
21
207.542790
0
LINE
8
Layer 1
10
64.050717
20
207.542790
11
63.168595
21
206.683983
0
LINE
8
Layer 1
10
63.168595
20
206.683983
11
62.931608
21
206.581736
0
LINE
8
Layer 1
10
62.931608
20
206.581736
11
62.709099
21
206.684019
0
LINE
8
Layer 1
10
62.709099
20
206.684019
11
62.103067
21
207.278286
0
LINE
8
Layer 1
10
62.103067
20
207.278286
11
62.011214
21
207.542791
0
LINE
8
Layer 1
10
62.011214
20
207.542791
11
62.543622
21
213.667641
0
LINE
8
Layer 1
10
62.543622
20
213.667641
11
62.635401
21
213.866008
0
LINE
8
Layer 1
10
62.635401
20
213.866008
11
62.635400
21
213.866000
0
LINE
8
Layer 1
10
72.550100
20
205.859000
11
72.451909
21
205.368717
0
LINE
8
Layer 1
10
72.451909
20
205.368717
11
72.172285
21
204.953076
0
LINE
8
Layer 1
10
72.172285
20
204.953076
11
71.753799
21
204.675353
0
LINE
8
Layer 1
10
71.753799
20
204.675353
11
71.260160
21
204.577830
0
LINE
8
Layer 1
10
71.260160
20
204.577830
11
70.766521
21
204.675353
0
LINE
8
Layer 1
10
70.766521
20
204.675353
11
70.348035
21
204.953076
0
LINE
8
Layer 1
10
70.348035
20
204.953076
11
70.068411
21
205.368717
0
LINE
8
Layer 1
10
70.068411
20
205.368717
11
69.970220
21
205.859000
0
LINE
8
Layer 1
10
69.970220
20
205.859000
11
70.068411
21
206.349283
0
LINE
8
Layer 1
10
70.068411
20
206.349283
11
70.348035
21
206.764924
0
LINE
8
Layer 1
10
70.348035
20
206.764924
11
70.766521
21
207.042647
0
LINE
8
Layer 1
10
70.766521
20
207.042647
11
71.260160
21
207.140170
0
LINE
8
Layer 1
10
71.260160
20
207.140170
11
71.753799
21
207.042647
0
LINE
8
Layer 1
10
71.753799
20
207.042647
11
72.172285
21
206.764924
0
LINE
8
Layer 1
10
72.172285
20
206.764924
11
72.451909
21
206.349283
0
LINE
8
Layer 1
10
72.451909
20
206.349283
11
72.550100
21
205.859000
0
LINE
8
Layer 1
10
72.550100
20
205.859000
11
72.550100
21
205.859000
0
LINE
8
Layer 1
10
85.420000
20
211.039000
11
86.981960
21
208.108800
0
LINE
8
Layer 1
10
86.981960
20
208.108800
11
87.166603
21
207.930937
0
LINE
8
Layer 1
10
87.166603
20
207.930937
11
87.407243
21
207.905794
0
LINE
8
Layer 1
10
87.407243
20
207.905794
11
87.623626
21
208.020645
0
LINE
8
Layer 1
10
87.623626
20
208.020645
11
87.735499
21
208.262762
0
LINE
8
Layer 1
10
87.735499
20
208.262762
11
87.918992
21
210.443942
0
LINE
8
Layer 1
10
87.918992
20
210.443942
11
86.357022
21
213.374142
0
LINE
8
Layer 1
10
86.357022
20
213.374142
11
86.164371
21
213.551733
0
LINE
8
Layer 1
10
86.164371
20
213.551733
11
85.917862
21
213.580107
0
LINE
8
Layer 1
10
85.917862
20
213.580107
11
85.702559
21
213.466994
0
LINE
8
Layer 1
10
85.702559
20
213.466994
11
85.603529
21
213.220127
0
LINE
8
Layer 1
10
85.603529
20
213.220127
11
85.420000
21
211.039000
0
LINE
8
Layer 1
10
79.502300
20
207.866000
11
79.557036
21
207.620831
0
LINE
8
Layer 1
10
79.557036
20
207.620831
11
79.763001
21
207.478156
0
LINE
8
Layer 1
10
79.763001
20
207.478156
11
80.022299
21
207.468916
0
LINE
8
Layer 1
10
80.022299
20
207.468916
11
80.237039
21
207.624055
0
LINE
8
Layer 1
10
80.237039
20
207.624055
11
82.314139
21
210.686505
0
LINE
8
Layer 1
10
82.314139
20
210.686505
11
82.516435
21
213.109555
0
LINE
8
Layer 1
10
82.516435
20
213.109555
11
82.453295
21
213.358524
0
LINE
8
Layer 1
10
82.453295
20
213.358524
11
82.249259
21
213.503446
0
LINE
8
Layer 1
10
82.249259
20
213.503446
11
81.994945
21
213.517548
0
LINE
8
Layer 1
10
81.994945
20
213.517548
11
81.780969
21
213.374057
0
LINE
8
Layer 1
10
81.780969
20
213.374057
11
79.704599
21
210.311597
0
LINE
8
Layer 1
10
79.704599
20
210.311597
11
79.502306
21
207.866017
0
LINE
8
Layer 1
10
79.502306
20
207.866017
11
79.502300
21
207.866000
0
LINE
8
Layer 1
10
82.902200
20
217.382000
11
83.085697
21
219.568410
0
LINE
8
Layer 1
10
83.085697
20
219.568410
11
81.523727
21
222.498610
0
LINE
8
Layer 1
10
81.523727
20
222.498610
11
81.329966
21
222.665242
0
LINE
8
Layer 1
10
81.329966
20
222.665242
11
81.089455
21
222.682238
0
LINE
8
Layer 1
10
81.089455
20
222.682238
11
80.877716
21
222.567979
0
LINE
8
Layer 1
10
80.877716
20
222.567979
11
80.770269
21
222.340848
0
LINE
8
Layer 1
10
80.770269
20
222.340848
11
80.567895
21
220.161968
0
LINE
8
Layer 1
10
80.567895
20
220.161968
11
82.129865
21
217.231768
0
LINE
8
Layer 1
10
82.129865
20
217.231768
11
82.327494
21
217.052128
0
LINE
8
Layer 1
10
82.327494
20
217.052128
11
82.580006
21
217.028904
0
LINE
8
Layer 1
10
82.580006
20
217.028904
11
82.800531
21
217.144670
0
LINE
8
Layer 1
10
82.800531
20
217.144670
11
82.902200
21
217.382002
0
LINE
8
Layer 1
10
82.902200
20
217.382002
11
82.902200
21
217.382000
0
LINE
8
Layer 1
10
91.061700
20
224.850000
11
90.777953
21
224.966663
0
LINE
8
Layer 1
10
90.777953
20
224.966663
11
90.491665
21
224.850071
0
LINE
8
Layer 1
10
90.491665
20
224.850071
11
89.683227
21
224.038560
0
LINE
8
Layer 1
10
89.683227
20
224.038560
11
89.021442
21
216.502700
0
LINE
8
Layer 1
10
89.021442
20
216.502700
11
89.609528
21
215.931685
0
LINE
8
Layer 1
10
89.609528
20
215.931685
11
89.892630
21
215.815486
0
LINE
8
Layer 1
10
89.892630
20
215.815486
11
90.179584
21
215.931639
0
LINE
8
Layer 1
10
90.179584
20
215.931639
11
90.986868
21
216.748727
0
LINE
8
Layer 1
10
90.986868
20
216.748727
11
91.647570
21
224.273657
0
LINE
8
Layer 1
10
91.647570
20
224.273657
11
91.061700
21
224.850000
0
LINE
8
Layer 1
10
90.087100
20
206.566000
11
90.767688
21
214.098860
0
LINE
8
Layer 1
10
90.767688
20
214.098860
11
90.179598
21
214.677386
0
LINE
8
Layer 1
10
90.179598
20
214.677386
11
89.892565
21
214.785540
0
LINE
8
Layer 1
10
89.892565
20
214.785540
11
89.609570
21
214.677457
0
LINE
8
Layer 1
10
89.609570
20
214.677457
11
88.782329
21
213.858436
0
LINE
8
Layer 1
10
88.782329
20
213.858436
11
88.139344
21
206.345866
0
LINE
8
Layer 1
10
88.139344
20
206.345866
11
88.709382
21
205.750809
0
LINE
8
Layer 1
10
88.709382
20
205.750809
11
88.995013
21
205.638179
0
LINE
8
Layer 1
10
88.995013
20
205.638179
11
89.278655
21
205.750826
0
LINE
8
Layer 1
10
89.278655
20
205.750826
11
90.087100
21
206.566005
0
LINE
8
Layer 1
10
90.087100
20
206.566005
11
90.087100
21
206.566000
0
LINE
8
Layer 1
10
90.142700
20
225.203000
11
90.237831
21
225.476686
0
LINE
8
Layer 1
10
90.237831
20
225.476686
11
90.142584
21
225.774033
0
LINE
8
Layer 1
10
90.142584
20
225.774033
11
89.462864
21
226.457722
0
LINE
8
Layer 1
10
89.462864
20
226.457722
11
80.807100
21
226.458000
0
LINE
8
Layer 1
10
80.807100
20
226.458000
11
80.127263
21
225.774290
0
LINE
8
Layer 1
10
80.127263
20
225.774290
11
79.982867
21
225.523412
0
LINE
8
Layer 1
10
79.982867
20
225.523412
11
80.127245
21
225.203275
0
LINE
8
Layer 1
10
80.127245
20
225.203275
11
80.807099
21
224.497026
0
LINE
8
Layer 1
10
80.807099
20
224.497026
11
89.462900
21
224.497000
0
LINE
8
Layer 1
10
89.462900
20
224.497000
11
90.142737
21
225.203252
0
LINE
8
Layer 1
10
90.142737
20
225.203252
11
90.142700
21
225.203000
0
LINE
8
Layer 1
10
78.326100
20
215.932000
11
78.560611
21
215.823696
0
LINE
8
Layer 1
10
78.560611
20
215.823696
11
78.896142
21
215.932092
0
LINE
8
Layer 1
10
78.896142
20
215.932092
11
79.704569
21
216.743440
0
LINE
8
Layer 1
10
79.704569
20
216.743440
11
80.366357
21
224.279300
0
LINE
8
Layer 1
10
80.366357
20
224.279300
11
79.778271
21
224.850315
0
LINE
8
Layer 1
10
79.778271
20
224.850315
11
79.486927
21
224.965735
0
LINE
8
Layer 1
10
79.486927
20
224.965735
11
79.208243
21
224.850357
0
LINE
8
Layer 1
10
79.208243
20
224.850357
11
78.399798
21
224.038875
0
LINE
8
Layer 1
10
78.399798
20
224.038875
11
77.738000
21
216.503000
0
LINE
8
Layer 1
10
77.738000
20
216.503000
11
78.326086
21
215.931985
0
LINE
8
Layer 1
10
78.326086
20
215.931985
11
78.326100
21
215.932000
0
LINE
8
Layer 1
10
78.822400
20
206.566000
11
79.484185
21
214.098860
0
LINE
8
Layer 1
10
79.484185
20
214.098860
11
78.896099
21
214.677386
0
LINE
8
Layer 1
10
78.896099
20
214.677386
11
78.610740
21
214.784025
0
LINE
8
Layer 1
10
78.610740
20
214.784025
11
78.326047
21
214.677291
0
LINE
8
Layer 1
10
78.326047
20
214.677291
11
77.498827
21
213.858436
0
LINE
8
Layer 1
10
77.498827
20
213.858436
11
76.855842
21
206.345866
0
LINE
8
Layer 1
10
76.855842
20
206.345866
11
77.425884
21
205.750809
0
LINE
8
Layer 1
10
77.425884
20
205.750809
11
77.711467
21
205.638202
0
LINE
8
Layer 1
10
77.711467
20
205.638202
11
77.995203
21
205.750770
0
LINE
8
Layer 1
10
77.995203
20
205.750770
11
78.822402
21
206.566006
0
LINE
8
Layer 1
10
78.822402
20
206.566006
11
78.822400
21
206.566000
0
LINE
8
Layer 1
10
87.698700
20
206.103000
11
79.024700
21
206.103000
0
LINE
8
Layer 1
10
79.024700
20
206.103000
11
78.344112
21
205.398250
0
LINE
8
Layer 1
10
78.344112
20
205.398250
11
78.233826
21
205.114373
0
LINE
8
Layer 1
10
78.233826
20
205.114373
11
78.344059
21
204.825749
0
LINE
8
Layer 1
10
78.344059
20
204.825749
11
79.024700
21
204.164564
0
LINE
8
Layer 1
10
79.024700
20
204.164564
11
87.698700
21
204.165000
0
LINE
8
Layer 1
10
87.698700
20
204.165000
11
88.378533
21
204.826171
0
LINE
8
Layer 1
10
88.378533
20
204.826171
11
88.487818
21
205.115676
0
LINE
8
Layer 1
10
88.487818
20
205.115676
11
88.378604
21
205.398675
0
LINE
8
Layer 1
10
88.378604
20
205.398675
11
87.698700
21
206.103000
0
LINE
8
Layer 1
10
89.260600
20
215.008000
11
89.375469
21
215.295521
0
LINE
8
Layer 1
10
89.375469
20
215.295521
11
89.260600
21
215.578955
0
LINE
8
Layer 1
10
89.260600
20
215.578955
11
88.580767
21
216.285264
0
LINE
8
Layer 1
10
88.580767
20
216.285264
11
85.566600
21
216.285000
0
LINE
8
Layer 1
10
85.566600
20
216.285000
11
84.867964
21
215.578748
0
LINE
8
Layer 1
10
84.867964
20
215.578748
11
84.759970
21
215.288319
0
LINE
8
Layer 1
10
84.759970
20
215.288319
11
84.877524
21
215.007697
0
LINE
8
Layer 1
10
84.877524
20
215.007697
11
85.566617
21
214.324022
0
LINE
8
Layer 1
10
85.566617
20
214.324022
11
88.580800
21
214.324000
0
LINE
8
Layer 1
10
88.580800
20
214.324000
11
89.260633
21
215.007714
0
LINE
8
Layer 1
10
89.260633
20
215.007714
11
89.260600
21
215.008000
0
LINE
8
Layer 1
10
79.924900
20
214.324000
11
79.245162
21
215.007699
0
LINE
8
Layer 1
10
79.245162
20
215.007699
11
79.124049
21
215.296162
0
LINE
8
Layer 1
10
79.124049
20
215.296162
11
79.245063
21
215.578725
0
LINE
8
Layer 1
10
79.245063
20
215.578725
11
79.924900
21
216.284977
0
LINE
8
Layer 1
10
79.924900
20
216.284977
11
82.948100
21
216.285000
0
LINE
8
Layer 1
10
82.948100
20
216.285000
11
83.632389
21
215.583140
0
LINE
8
Layer 1
10
83.632389
20
215.583140
11
83.738185
21
215.290489
0
LINE
8
Layer 1
10
83.738185
20
215.290489
11
83.618913
21
215.007736
0
LINE
8
Layer 1
10
83.618913
20
215.007736
11
82.939080
21
214.324022
0
LINE
8
Layer 1
10
82.939080
20
214.324022
11
79.924900
21
214.324000
0
LINE
8
Layer 1
10
88.267900
20
223.002000
11
86.191550
21
219.913960
0
LINE
8
Layer 1
10
86.191550
20
219.913960
11
85.971205
21
217.494670
0
LINE
8
Layer 1
10
85.971205
20
217.494670
11
86.033569
21
217.239689
0
LINE
8
Layer 1
10
86.033569
20
217.239689
11
86.253162
21
217.083820
0
LINE
8
Layer 1
10
86.253162
20
217.083820
11
86.520165
21
217.067639
0
LINE
8
Layer 1
10
86.520165
20
217.067639
11
86.724754
21
217.231721
0
LINE
8
Layer 1
10
86.724754
20
217.231721
11
88.782294
21
220.312171
0
LINE
8
Layer 1
10
88.782294
20
220.312171
11
89.003390
21
222.716431
0
LINE
8
Layer 1
10
89.003390
20
222.716431
11
88.945755
21
222.966638
0
LINE
8
Layer 1
10
88.945755
20
222.966638
11
88.735544
21
223.126697
0
LINE
8
Layer 1
10
88.735544
20
223.126697
11
88.475383
21
223.153014
0
LINE
8
Layer 1
10
88.475383
20
223.153014
11
88.267896
21
223.001997
0
LINE
8
Layer 1
10
88.267896
20
223.001997
11
88.267900
21
223.002000
0
LINE
8
Layer 1
10
85.971200
20
223.070000
11
85.887955
21
223.333013
0
LINE
8
Layer 1
10
85.887955
20
223.333013
11
85.272564
21
223.949060
0
LINE
8
Layer 1
10
85.272564
20
223.949060
11
85.051788
21
224.027160
0
LINE
8
Layer 1
10
85.051788
20
224.027160
11
84.831868
21
223.949131
0
LINE
8
Layer 1
10
84.831868
20
223.949131
11
83.949746
21
223.047461
0
LINE
8
Layer 1
10
83.949746
20
223.047461
11
83.857255
21
222.867139
0
LINE
8
Layer 1
10
83.857255
20
222.867139
11
83.324805
21
216.721239
0
LINE
8
Layer 1
10
83.324805
20
216.721239
11
83.415162
21
216.470556
0
LINE
8
Layer 1
10
83.415162
20
216.470556
11
84.022690
21
215.864721
0
LINE
8
Layer 1
10
84.022690
20
215.864721
11
84.251600
21
215.780802
0
LINE
8
Layer 1
10
84.251600
20
215.780802
11
84.482175
21
215.864756
0
LINE
8
Layer 1
10
84.482175
20
215.864756
11
85.346263
21
216.743781
0
LINE
8
Layer 1
10
85.346263
20
216.743781
11
85.456150
21
216.969135
0
LINE
8
Layer 1
10
85.456150
20
216.969135
11
85.971201
21
223.069995
0
LINE
8
Layer 1
10
85.971201
20
223.069995
11
85.971200
21
223.070000
0
LINE
8
Layer 1
10
83.140600
20
213.858000
11
84.022729
21
214.714588
0
LINE
8
Layer 1
10
84.022729
20
214.714588
11
84.255174
21
214.801164
0
LINE
8
Layer 1
10
84.255174
20
214.801164
11
84.482218
21
214.714517
0
LINE
8
Layer 1
10
84.482218
20
214.714517
11
85.089125
21
214.120987
0
LINE
8
Layer 1
10
85.089125
20
214.120987
11
85.180854
21
213.857999
0
LINE
8
Layer 1
10
85.180854
20
213.857999
11
84.647822
21
207.733149
0
LINE
8
Layer 1
10
84.647822
20
207.733149
11
84.555917
21
207.534790
0
LINE
8
Layer 1
10
84.555917
20
207.534790
11
83.673795
21
206.675983
0
LINE
8
Layer 1
10
83.673795
20
206.675983
11
83.436808
21
206.573736
0
LINE
8
Layer 1
10
83.436808
20
206.573736
11
83.214299
21
206.676019
0
LINE
8
Layer 1
10
83.214299
20
206.676019
11
82.608267
21
207.270286
0
LINE
8
Layer 1
10
82.608267
20
207.270286
11
82.516414
21
207.534791
0
LINE
8
Layer 1
10
82.516414
20
207.534791
11
83.048822
21
213.659641
0
LINE
8
Layer 1
10
83.048822
20
213.659641
11
83.140601
21
213.858008
0
LINE
8
Layer 1
10
83.140601
20
213.858008
11
83.140600
21
213.858000
0
LINE
8
Layer 1
10
93.055300
20
205.851000
11
92.957109
21
205.360717
0
LINE
8
Layer 1
10
92.957109
20
205.360717
11
92.677485
21
204.945076
0
LINE
8
Layer 1
10
92.677485
20
204.945076
11
92.258999
21
204.667353
0
LINE
8
Layer 1
10
92.258999
20
204.667353
11
91.765360
21
204.569830
0
LINE
8
Layer 1
10
91.765360
20
204.569830
11
91.271721
21
204.667353
0
LINE
8
Layer 1
10
91.271721
20
204.667353
11
90.853235
21
204.945076
0
LINE
8
Layer 1
10
90.853235
20
204.945076
11
90.573611
21
205.360717
0
LINE
8
Layer 1
10
90.573611
20
205.360717
11
90.475420
21
205.851000
0
LINE
8
Layer 1
10
90.475420
20
205.851000
11
90.573611
21
206.341283
0
LINE
8
Layer 1
10
90.573611
20
206.341283
11
90.853235
21
206.756924
0
LINE
8
Layer 1
10
90.853235
20
206.756924
11
91.271721
21
207.034647
0
LINE
8
Layer 1
10
91.271721
20
207.034647
11
91.765360
21
207.132170
0
LINE
8
Layer 1
10
91.765360
20
207.132170
11
92.258999
21
207.034647
0
LINE
8
Layer 1
10
92.258999
20
207.034647
11
92.677485
21
206.756924
0
LINE
8
Layer 1
10
92.677485
20
206.756924
11
92.957109
21
206.341283
0
LINE
8
Layer 1
10
92.957109
20
206.341283
11
93.055300
21
205.851000
0
LINE
8
Layer 1
10
93.055300
20
205.851000
11
93.055300
21
205.851000
 0 
ENDSEC
 0 
EOF